<?xml version="1.0" encoding="utf-8"?>
<!-- Generator: Adobe Illustrator 22.0.1, SVG Export Plug-In . SVG Version: 6.00 Build 0)  -->
<svg version="1.1" xmlns="http://www.w3.org/2000/svg" xmlns:xlink="http://www.w3.org/1999/xlink" x="0px" y="0px"
	 viewBox="0 0 209.381 255.002" enable-background="new 0 0 209.381 255.002" xml:space="preserve">
<g id="Layer_1">
	<g>
		<path fill="#595A5C" d="M104.69,0C46.867,0,0,46.874,0,104.688c0,57.822,46.867,104.688,104.69,104.688
			c57.82,0,104.691-46.866,104.691-104.688C209.381,46.874,162.511,0,104.69,0z M104.69,204.8
			c-55.294,0-100.112-44.818-100.112-100.111C4.578,49.399,49.396,4.576,104.69,4.576c55.29,0,100.109,44.823,100.109,100.112
			C204.8,159.981,159.98,204.8,104.69,204.8z"/>
		<g>
			<path fill="#414142" d="M22.025,254.59l2.153-30.854h3.891l4.027,11.306l5.446,15.7c2.104-5.768,5.434-14.768,9.98-27.006h3.89
				l2.61,30.854h-2.84l-2.287-27.145c-1.953,5.462-5.188,14.253-9.706,26.365h-3.34l-9.156-26.046
				c-0.274,4.489-0.882,13.429-1.829,26.826H22.025z"/>
			<path fill="#414142" d="M81.027,243.074c0,3.466-0.97,6.32-2.904,8.561c-1.939,2.243-4.57,3.366-7.898,3.366
				c-3.325,0-5.948-1.13-7.873-3.39c-1.924-2.259-2.883-5.086-2.883-8.49c0-3.403,0.994-6.263,2.974-8.582
				c1.985-2.318,4.625-3.479,7.919-3.479c3.295,0,5.897,1.137,7.807,3.409C80.074,236.744,81.027,239.613,81.027,243.074z
				 M78.098,243.03c0-2.641-0.655-4.851-1.967-6.637c-1.313-1.783-3.242-2.678-5.79-2.678c-2.552,0-4.509,0.914-5.883,2.746
				c-1.372,1.833-2.06,4.027-2.06,6.592c0,2.563,0.712,4.751,2.129,6.568c1.417,1.815,3.343,2.722,5.766,2.722
				c2.428,0,4.334-0.891,5.722-2.677C77.403,247.885,78.098,245.67,78.098,243.03z"/>
			<path fill="#414142" d="M86.748,225.339c-0.363-0.364-0.551-0.824-0.551-1.375c0-0.547,0.188-1.011,0.551-1.394
				c0.366-0.382,0.824-0.573,1.374-0.573c0.549,0,1.013,0.191,1.395,0.573c0.378,0.383,0.575,0.847,0.575,1.394
				c0,0.551-0.197,1.011-0.575,1.375c-0.382,0.365-0.846,0.551-1.395,0.551C87.572,225.89,87.114,225.704,86.748,225.339z
				 M86.748,254.59v-23.208h2.791v23.208H86.748z"/>
			<path fill="#414142" d="M102.994,233.76c-1.341,0-2.396,0.313-3.176,0.942c-0.781,0.622-1.17,1.341-1.17,2.148
				c0,0.811,0.115,1.444,0.344,1.898c0.229,0.457,0.62,0.887,1.167,1.283c0.731,0.457,2.015,1.061,3.845,1.808
				c1.83,0.75,3.319,1.634,4.463,2.655c1.141,1.023,1.719,2.448,1.719,4.279c0,1.831-0.669,3.306-1.993,4.416
				c-1.329,1.115-3.274,1.671-5.837,1.671c-2.563,0-4.699-0.456-6.406-1.371v-2.885c2.043,1.161,4.236,1.738,6.593,1.738
				c1.553,0,2.737-0.319,3.548-0.959c0.807-0.643,1.21-1.526,1.21-2.657c0-1.128-0.419-2.029-1.26-2.699
				c-0.837-0.672-2.204-1.382-4.094-2.128c-1.893-0.746-3.39-1.61-4.487-2.585c-1.097-0.977-1.646-2.356-1.646-4.145
				c0-1.783,0.688-3.232,2.062-4.348c1.37-1.112,3.202-1.67,5.491-1.67c2.288,0,4.102,0.351,5.446,1.054v2.791
				C107.375,234.174,105.438,233.76,102.994,233.76z"/>
			<path fill="#414142" d="M119.565,233.76v14.42c0,2.653,1.238,3.981,3.708,3.981c1.222,0,2.26-0.349,3.11-1.051v2.837
				c-0.884,0.581-1.903,0.869-3.063,0.869c-4.396,0-6.593-2.257-6.593-6.773V233.76h-3.798v-2.378h3.798v-5.813h2.838v5.813h6.638
				v2.378H119.565z"/>
			<path fill="#414142" d="M146.391,231.382h2.788v23.208h-2.788v-4.169c-1.223,2.992-3.679,4.489-7.371,4.489
				c-2.257,0-4.053-0.681-5.381-2.04c-1.328-1.355-1.99-3.148-1.99-5.375v-16.113h2.794v15.333c0,1.769,0.463,3.128,1.396,4.075
				c0.929,0.944,2.153,1.416,3.686,1.416c2.043,0,3.698-0.731,4.967-2.195c1.264-1.465,1.899-3.371,1.899-5.723V231.382z"/>
			<path fill="#414142" d="M158.93,231.382v3.937c1.283-2.807,3.45-4.212,6.501-4.212c0.214,0,0.595,0.031,1.146,0.093v2.837
				c-0.616-0.184-1.223-0.276-1.832-0.276c-1.648,0-3.033,0.818-4.144,2.451c-1.114,1.634-1.671,3.439-1.671,5.423v12.956h-2.792
				v-23.208H158.93z"/>
			<path fill="#414142" d="M180.716,254.816c-3.444,0-6.245-1.076-8.397-3.226c-2.149-2.152-3.226-5.037-3.226-8.653
				c0-3.615,0.943-6.491,2.837-8.627c1.892-2.136,4.304-3.204,7.233-3.204c2.928,0,5.229,0.932,6.909,2.794
				c1.68,1.861,2.52,4.484,2.52,7.87c0,1.038-0.061,1.864-0.186,2.474H172.02c0.214,2.562,1.101,4.523,2.656,5.882
				c1.558,1.355,3.631,2.035,6.226,2.035c2.591,0,4.67-0.519,6.227-1.556v2.838C185.297,254.359,183.156,254.816,180.716,254.816z
				 M185.708,241.68v-1.052c0-2.105-0.589-3.785-1.764-5.037c-1.177-1.248-2.746-1.875-4.714-1.875c-1.971,0-3.61,0.686-4.922,2.059
				c-1.311,1.376-2.075,3.343-2.289,5.905H185.708z"/>
		</g>
		<g>
			<path fill-rule="evenodd" clip-rule="evenodd" fill="#595A5C" d="M104.69,33.359c0,0-40.021,55.656-40.021,99.43
				c0,36.427,23.213,43.229,40.021,43.229c17.337,0,40.023-6.802,40.023-43.229C144.713,89.016,104.69,33.359,104.69,33.359z
				 M104.69,170.631c-14.479,0-34.483-6.002-34.483-38.159c0-38.641,34.483-87.772,34.483-87.772s34.483,49.132,34.483,87.772
				C139.174,164.629,119.627,170.631,104.69,170.631z"/>
			<path fill="#595A5C" d="M131.33,138.849c0.003-0.024,0.007-0.042,0.007-0.067h-0.015c-0.041-1.64-1.378-2.96-3.028-2.96
				c-1.675,0-3.035,1.36-3.035,3.036c0,0.034,0.007,0.063,0.011,0.097c-0.512,7.639-6.846,13.683-14.615,13.683v0.011
				c-1.648,0.013-2.985,1.354-2.985,3.007c0,1.654,1.337,2.994,2.985,3.007v0.002h0.019h0.004h0.029
				c11.05-0.026,20.056-8.715,20.61-19.641c0-0.055,0.017-0.109,0.017-0.165L131.33,138.849z"/>
		</g>
	</g>
</g>
<g id="Layer_2">
</g>
</svg>
