<?xml version="1.0" encoding="utf-8"?>
<!-- Generator: Adobe Illustrator 22.0.1, SVG Export Plug-In . SVG Version: 6.00 Build 0)  -->
<svg version="1.1" xmlns="http://www.w3.org/2000/svg" xmlns:xlink="http://www.w3.org/1999/xlink" x="0px" y="0px"
	 viewBox="0 0 210.84 257.852" enable-background="new 0 0 210.84 257.852" xml:space="preserve">
<g id="Layer_1">
	<g>
		<path fill="#595A5C" d="M105.415,0C47.192,0,0,47.199,0,105.416c0,58.225,47.192,105.42,105.415,105.42
			c58.228,0,105.425-47.195,105.425-105.42C210.84,47.199,163.643,0,105.415,0z M105.415,206.225
			c-55.673,0-100.806-45.129-100.806-100.809c0-55.674,45.133-100.809,100.806-100.809c55.68,0,100.812,45.135,100.812,100.809
			C206.227,161.096,161.095,206.225,105.415,206.225z"/>
		<g>
			<path fill="#414142" d="M57.346,226.369l-10.922,31.064h-3.918l-10.555-31.064h3.089l9.447,28.529l9.771-28.529H57.346z"/>
			<path fill="#414142" d="M82.974,245.842c0,3.488-0.975,6.361-2.924,8.619c-1.952,2.26-4.603,3.391-7.954,3.391
				c-3.35,0-5.992-1.137-7.927-3.412c-1.937-2.275-2.904-5.123-2.904-8.549c0-3.43,1-6.307,2.999-8.645
				c1.995-2.334,4.654-3.504,7.971-3.504c3.318,0,5.937,1.148,7.857,3.434C82.012,239.467,82.974,242.354,82.974,245.842z
				 M80.025,245.797c0-2.66-0.66-4.885-1.984-6.686c-1.32-1.797-3.267-2.693-5.829-2.693c-2.566,0-4.541,0.918-5.92,2.764
				c-1.384,1.844-2.075,4.057-2.075,6.639c0,2.58,0.71,4.785,2.142,6.613c1.427,1.826,3.362,2.742,5.81,2.742
				c2.438,0,4.358-0.902,5.761-2.697C79.324,250.684,80.025,248.455,80.025,245.797z"/>
			<path fill="#414142" d="M88.737,257.434v-32.586h2.811v32.586H88.737z"/>
			<path fill="#414142" d="M113.301,234.066h2.814v23.367h-2.814v-4.193c-1.227,3.01-3.704,4.518-7.417,4.518
				c-2.278,0-4.081-0.684-5.421-2.053c-1.332-1.363-2.002-3.172-2.002-5.414v-16.225h2.811v15.438c0,1.785,0.471,3.154,1.405,4.105
				c0.937,0.951,2.175,1.428,3.711,1.428c2.056,0,3.727-0.736,5.001-2.211c1.274-1.477,1.912-3.396,1.912-5.762V234.066z"/>
			<path fill="#414142" d="M125.93,234.066v3.824c1.318-2.795,3.503-4.193,6.549-4.193c3.742,0,6.053,1.537,6.908,4.609
				c1.449-3.072,3.752-4.609,6.917-4.609c2.46,0,4.285,0.684,5.483,2.051c1.2,1.369,1.801,3.158,1.801,5.371v16.314h-2.813v-15.439
				c0-3.719-1.635-5.576-4.887-5.576c-1.6,0-3.022,0.736-4.263,2.211c-1.249,1.477-1.868,3.441-1.868,5.9v12.904h-2.814v-15.439
				c0-3.719-1.626-5.576-4.885-5.576c-1.597,0-3.016,0.736-4.261,2.211c-1.245,1.477-1.868,3.441-1.868,5.9v12.904h-2.811v-23.367
				H125.93z"/>
			<path fill="#414142" d="M170.593,257.664c-3.475,0-6.292-1.084-8.458-3.248c-2.167-2.166-3.248-5.072-3.248-8.713
				c0-3.641,0.951-6.537,2.858-8.686c1.9-2.154,4.329-3.227,7.282-3.227c2.948,0,5.266,0.936,6.958,2.813
				c1.692,1.875,2.535,4.516,2.535,7.926c0,1.045-0.063,1.875-0.182,2.49h-16.504c0.215,2.578,1.105,4.553,2.673,5.92
				c1.566,1.367,3.656,2.049,6.269,2.049c2.609,0,4.702-0.52,6.269-1.564v2.858C175.203,257.203,173.051,257.664,170.593,257.664z
				 M175.613,244.438v-1.061c0-2.121-0.591-3.811-1.771-5.07c-1.185-1.26-2.766-1.889-4.75-1.889c-1.98,0-3.631,0.691-4.952,2.074
				c-1.325,1.383-2.09,3.363-2.305,5.945H175.613z"/>
		</g>
		<path fill-rule="evenodd" clip-rule="evenodd" fill="#595A5C" d="M105.415,38.012l-53.726,31.02v62.047l53.726,31.02l53.735-31.02
			V69.031L105.415,38.012z M153.14,69.15l-47.788,29.324l-49.22-28.424L105.415,41.6L153.14,69.15z M54.792,72.865l49.075,28.334
			l0.142,56.502l-49.217-28.414V72.865z M107.113,157.533l-0.142-56.412l49.071-30.113v58.279L107.113,157.533z"/>
	</g>
</g>
<g id="Layer_2">
</g>
</svg>
