<?xml version="1.0" encoding="utf-8"?>
<!-- Generator: Adobe Illustrator 22.0.1, SVG Export Plug-In . SVG Version: 6.00 Build 0)  -->
<svg version="1.1" xmlns="http://www.w3.org/2000/svg" xmlns:xlink="http://www.w3.org/1999/xlink" x="0px" y="0px"
	 viewBox="0 0 228.735 257.926" enable-background="new 0 0 228.735 257.926" xml:space="preserve">
<g id="Layer_1">
	<g>
		<g>
			<path fill="#414142" d="M0,226.313h7.467c3.626,0,6.472,0.918,8.546,2.744c2.072,1.826,3.112,4.133,3.112,6.912
				c0,2.779-1.007,5.078-3.021,6.887c-2.008,1.814-4.723,2.721-8.131,2.721H2.855v11.797H0V226.313z M2.855,243.041h5.44
				c2.426,0,4.352-0.645,5.783-1.936c1.426-1.289,2.141-2.988,2.141-5.092c0-2.102-0.732-3.824-2.21-5.16
				c-1.474-1.336-3.548-2.004-6.22-2.004H2.855V243.041z"/>
			<path fill="#414142" d="M31.794,233.641c5.717,0,8.569,2.996,8.569,8.984v14.748h-2.806v-2.723
				c-1.291,1.971-3.534,2.953-6.729,2.953c-2.15,0-3.914-0.639-5.276-1.914c-1.368-1.273-2.049-2.971-2.049-5.092
				c0-2.117,0.867-3.801,2.603-5.047c1.733-1.24,4.03-1.867,6.888-1.867h4.564v-1.059c0-2.086-0.448-3.662-1.341-4.723
				c-0.89-1.059-2.465-1.588-4.723-1.588c-2.255,0-4.353,0.662-6.286,1.98v-3.043C26.987,234.18,29.183,233.641,31.794,233.641z
				 M37.558,246.266h-4.564c-2.184,0-3.811,0.424-4.882,1.266c-1.079,0.85-1.615,1.908-1.615,3.18c0,1.275,0.418,2.316,1.271,3.113
				c0.841,0.801,2.132,1.197,3.867,1.197c1.734,0,3.156-0.506,4.262-1.521c1.106-1.012,1.662-2.303,1.662-3.869V246.266z"/>
			<path fill="#414142" d="M49.904,234.01v3.963c1.29-2.828,3.472-4.238,6.545-4.238c0.212,0,0.597,0.029,1.149,0.09v2.857
				c-0.613-0.184-1.226-0.275-1.84-0.275c-1.66,0-3.05,0.82-4.172,2.465c-1.125,1.643-1.683,3.465-1.683,5.461v13.041h-2.812V234.01
				H49.904z"/>
			<path fill="#414142" d="M65.896,236.406v14.516c0,2.672,1.242,4.008,3.73,4.008c1.226,0,2.271-0.354,3.134-1.061v2.859
				c-0.892,0.582-1.921,0.875-3.089,0.875c-4.421,0-6.632-2.273-6.632-6.822v-14.375h-3.827v-2.396h3.827v-5.852h2.856v5.852h6.681
				v2.396H65.896z"/>
			<path fill="#414142" d="M78.518,227.928c-0.367-0.369-0.55-0.832-0.55-1.383c0-0.553,0.183-1.021,0.55-1.404
				c0.369-0.385,0.83-0.576,1.383-0.576c0.554,0,1.025,0.191,1.408,0.576c0.38,0.383,0.576,0.852,0.576,1.404
				c0,0.551-0.196,1.014-0.576,1.383c-0.383,0.367-0.854,0.553-1.408,0.553C79.348,228.48,78.887,228.295,78.518,227.928z
				 M78.518,257.373V234.01h2.811v23.363H78.518z"/>
			<path fill="#414142" d="M92.575,239.1c-1.69,1.861-2.536,4.102-2.536,6.73c0,2.625,0.814,4.848,2.442,6.658
				c1.631,1.813,3.949,2.717,6.957,2.717c1.873,0,3.474-0.488,4.793-1.473v2.855c-1.319,0.893-3.023,1.338-5.115,1.338
				c-3.777,0-6.726-1.189-8.846-3.572c-2.12-2.379-3.181-5.223-3.181-8.523c0-3.303,1.086-6.168,3.249-8.596
				c2.167-2.426,5.091-3.639,8.777-3.639c1.905,0,3.612,0.414,5.115,1.242v2.857c-1.383-0.92-2.992-1.381-4.841-1.381
				C96.534,236.314,94.263,237.244,92.575,239.1z"/>
			<path fill="#414142" d="M110.453,257.373v-32.58h2.813v32.58H110.453z"/>
			<path fill="#414142" d="M130.729,257.603c-3.472,0-6.29-1.084-8.456-3.25c-2.168-2.164-3.25-5.068-3.25-8.707
				c0-3.641,0.953-6.537,2.859-8.688c1.9-2.15,4.33-3.225,7.278-3.225c2.951,0,5.268,0.938,6.956,2.809
				c1.693,1.875,2.537,4.518,2.537,7.928c0,1.043-0.064,1.873-0.183,2.488h-16.496c0.214,2.582,1.102,4.553,2.671,5.92
				c1.566,1.367,3.652,2.051,6.268,2.051c2.61,0,4.699-0.523,6.266-1.566v2.857C135.335,257.143,133.183,257.603,130.729,257.603z
				 M135.749,244.377v-1.059c0-2.121-0.594-3.809-1.77-5.068c-1.189-1.26-2.767-1.889-4.751-1.889c-1.98,0-3.632,0.691-4.95,2.072
				c-1.323,1.383-2.089,3.363-2.303,5.943H135.749z"/>
			<path fill="#414142" d="M165.098,228.85c-2.056,0-3.697,0.484-4.927,1.451c-1.227,0.967-1.842,2.25-1.842,3.846
				c0,1.658,0.706,2.98,2.117,3.963c1.136,0.832,2.459,1.561,3.96,2.191c1.51,0.631,2.536,1.076,3.09,1.336
				c0.553,0.258,1.26,0.666,2.118,1.219c0.864,0.555,1.507,1.094,1.939,1.615c1.164,1.414,1.752,3.039,1.752,4.885
				c0,2.703-0.907,4.768-2.723,6.195c-1.813,1.432-4.225,2.144-7.234,2.144c-3.011,0-5.637-0.674-7.878-2.029v-3.178
				c0.919,0.707,2.107,1.289,3.569,1.752c1.462,0.459,3.115,0.689,4.955,0.689c1.844,0,3.371-0.477,4.582-1.43
				c1.215-0.951,1.82-2.211,1.82-3.777c0-1.566-0.459-2.764-1.379-3.594c-1.016-0.922-2.889-1.965-5.623-3.135
				c-2.553-1.105-4.08-1.871-4.582-2.303c-0.51-0.432-1.008-0.875-1.501-1.336c-0.49-0.461-0.845-0.922-1.058-1.383
				c-0.587-1.258-0.876-2.473-0.876-3.641c0-2.609,0.936-4.646,2.811-6.105c1.871-1.459,4.128-2.188,6.771-2.188
				c2.645,0,4.824,0.459,6.545,1.383v3.178c-0.74-0.49-1.707-0.906-2.902-1.246C167.405,229.018,166.237,228.85,165.098,228.85z"/>
			<path fill="#414142" d="M179.984,227.928c-0.367-0.369-0.556-0.832-0.556-1.383c0-0.553,0.189-1.021,0.556-1.404
				c0.37-0.385,0.827-0.576,1.383-0.576c0.554,0,1.02,0.191,1.404,0.576c0.385,0.383,0.579,0.852,0.579,1.404
				c0,0.551-0.194,1.014-0.579,1.383c-0.385,0.367-0.851,0.553-1.404,0.553C180.811,228.48,180.355,228.295,179.984,227.928z
				 M179.984,257.373V234.01h2.813v23.363H179.984z"/>
			<path fill="#414142" d="M204.314,234.01v2.117l-12.441,18.48h13.086v2.766h-16.404v-2.351l12.259-18.293h-11.796v-2.719H204.314z
				"/>
			<path fill="#414142" d="M220.81,257.603c-3.474,0-6.286-1.084-8.454-3.25c-2.168-2.164-3.251-5.068-3.251-8.707
				c0-3.641,0.953-6.537,2.858-8.688c1.905-2.15,4.332-3.225,7.282-3.225c2.947,0,5.268,0.938,6.957,2.809
				c1.691,1.875,2.533,4.518,2.533,7.928c0,1.043-0.061,1.873-0.184,2.488h-16.496c0.215,2.582,1.108,4.553,2.672,5.92
				c1.567,1.367,3.658,2.051,6.268,2.051c2.607,0,4.703-0.523,6.267-1.566v2.857C225.418,257.143,223.268,257.603,220.81,257.603z
				 M225.834,244.377v-1.059c0-2.121-0.592-3.809-1.773-5.068c-1.186-1.26-2.767-1.889-4.746-1.889
				c-1.984,0-3.636,0.691-4.955,2.072c-1.319,1.383-2.089,3.363-2.304,5.943H225.834z"/>
		</g>
		<g>
			<path fill="#595A5C" d="M109.765,0C51.549,0,4.37,47.188,4.37,105.393c0,58.207,47.179,105.391,105.395,105.391
				c58.207,0,105.392-47.184,105.392-105.391C215.156,47.188,167.972,0,109.765,0z M109.765,206.174
				c-55.666,0-100.787-45.119-100.787-100.781c0-55.658,45.121-100.785,100.787-100.785c55.66,0,100.785,45.127,100.785,100.785
				C210.55,161.055,165.425,206.174,109.765,206.174z"/>
			<path fill="#595A5C" d="M125.877,148.566c-0.509-0.771-8.19,22.955-9.457,23.061c-1.263-0.479-9.874-22.096-10.283-21.506
				c-2.922,3.791-9.106,23.727-10.452,23.41c-1.35-0.324-3.485-6.602-6.336-25.176c-10.91,22.906-9.906,25.6-16.187,8.721
				c-0.079-0.301-0.207-0.598-0.36-0.996c-2.289,1.68-3.235,4.443-5.62,6.178c-0.095-0.578-0.222-0.898-0.197-1.24
				c0.905-10.271,3.023-20.385,6.779-30.307c2.804-7.455,7.39-13.855,12.989-19.596c3.027-3.094,6.325-5.816,10.047-8.221
				c-0.154-1.348-0.281-2.635-0.459-3.922c-0.848-6.094-1.239-12.264-0.988-18.521c0.377-9.049,2.332-17.746,7.419-25.908
				c3.007-4.818,6.368-9.316,10.819-12.998c1.868-1.574,3.885-2.848,6.124-3.627c3.587-1.246,6.775-0.82,9.25,1.783
				c1.112,1.174,2.185,2.375,3.112,3.68c1.224,1.734,1.856,3.715,1.629,5.994c-0.303,2.84-2.483,5.09-5.351,5.351
				c-2.312,0.227-4.59,0.061-6.752-0.633c-0.878-0.287-1.737-0.603-2.433-0.822c-0.486,0.266-0.718,0.363-0.896,0.502
				c-0.313,0.238-0.588,0.504-0.841,0.781c-5.354,5.734-8.78,12.236-9.386,19.787c-0.658,8.23-0.118,16.287,1.18,24.238
				c0.231,1.488,0.837,2.641,2.04,3.457c0.562,0.4,1.128,0.801,1.692,1.195c3.578,2.514,7.258,4.951,10.729,7.588
				c5.391,4.07,9.904,8.898,12.507,15.318c1.77,4.332,4.512,8.074,7.506,11.563c2.007,2.324,4.559,4.18,6.875,6.238
				c0.575,0.516,1.175,1.021,1.966,1.707c-0.935,0.637-1.566,1.244-2.332,1.545c-2.735,1.15-5.472,1.291-8.194,0.574
				c-0.842-0.205-1.621-0.939-2.731-0.26c0.123,1.219,0.316,2.363,0.377,3.559c0.232,4.645,0.41,9.279,0.604,13.932
				c0.014,0.578,0.073,1.348-1.023,1.619C138.155,166.889,134.33,161.615,125.877,148.566z"/>
		</g>
	</g>
</g>
<g id="Layer_2">
</g>
</svg>
