<?xml version="1.0" encoding="utf-8"?>
<!-- Generator: Adobe Illustrator 22.0.1, SVG Export Plug-In . SVG Version: 6.00 Build 0)  -->
<svg version="1.1" xmlns="http://www.w3.org/2000/svg" xmlns:xlink="http://www.w3.org/1999/xlink" x="0px" y="0px"
	 viewBox="0 0 210.064 256.902" enable-background="new 0 0 210.064 256.902" xml:space="preserve">
<g id="Layer_1">
	<g>
		<g>
			<path fill="#414142" d="M75.573,228.156H61.937v11.801h12.03v2.618h-12.03v13.912h-2.848v-30.949h16.484V228.156z"/>
			<path fill="#414142" d="M101.336,244.939c0,3.475-0.971,6.338-2.914,8.588c-1.945,2.25-4.588,3.375-7.924,3.375
				c-3.338,0-5.968-1.13-7.898-3.398c-1.93-2.268-2.891-5.104-2.891-8.518c0-3.414,0.993-6.283,2.985-8.61
				c1.987-2.327,4.635-3.491,7.942-3.491c3.308,0,5.915,1.143,7.828,3.421C100.379,238.585,101.336,241.464,101.336,244.939z
				 M98.396,244.892c0-2.646-0.658-4.865-1.973-6.658c-1.319-1.791-3.254-2.686-5.809-2.686c-2.561,0-4.523,0.918-5.902,2.756
				c-1.377,1.835-2.068,4.038-2.068,6.611c0,2.573,0.715,4.77,2.137,6.59c1.424,1.822,3.354,2.733,5.787,2.733
				c2.434,0,4.347-0.897,5.74-2.686C97.699,249.759,98.396,247.54,98.396,244.892z"/>
			<path fill="#414142" d="M127.097,244.939c0,3.475-0.97,6.338-2.913,8.588c-1.947,2.25-4.588,3.375-7.922,3.375
				c-3.34,0-5.973-1.13-7.9-3.398c-1.927-2.268-2.893-5.104-2.893-8.518c0-3.414,0.994-6.283,2.984-8.61
				c1.988-2.327,4.638-3.491,7.944-3.491c3.309,0,5.917,1.143,7.832,3.421C126.142,238.585,127.097,241.464,127.097,244.939z
				 M124.156,244.892c0-2.646-0.658-4.865-1.971-6.658c-1.318-1.791-3.256-2.686-5.809-2.686c-2.557,0-4.527,0.918-5.902,2.756
				c-1.379,1.835-2.066,4.038-2.066,6.611c0,2.573,0.711,4.77,2.137,6.59c1.422,1.822,3.35,2.733,5.785,2.733
				c2.434,0,4.346-0.897,5.738-2.686C123.463,249.759,124.156,247.54,124.156,244.892z"/>
			<path fill="#414142" d="M148.359,224.021h2.799v32.464h-2.799v-3.397c-1.625,2.512-4.013,3.768-7.166,3.768
				c-3.151,0-5.6-1.143-7.348-3.422c-1.743-2.279-2.615-5.143-2.615-8.588c0-3.442,0.932-6.306,2.798-8.587
				c1.87-2.279,4.299-3.419,7.28-3.419c2.983,0,5.335,1.285,7.051,3.857V224.021z M136.119,251.667
				c1.303,1.684,2.947,2.525,4.936,2.525c1.991,0,3.707-0.729,5.145-2.182c1.439-1.455,2.16-3.881,2.16-7.279
				c0-1.713-0.24-3.205-0.714-4.476c-0.475-1.27-1.093-2.229-1.861-2.872c-1.407-1.256-2.889-1.881-4.45-1.881
				c-2.086,0-3.798,0.832-5.145,2.502c-1.35,1.667-2.02,3.941-2.02,6.818C134.169,247.703,134.82,249.984,136.119,251.667z"/>
		</g>
		<g>
			<path fill="#595A5C" d="M105.033,0C47.02,0,0,47.026,0,105.031C0,163.04,47.02,210.06,105.033,210.06
				c58.008,0,105.03-47.02,105.03-105.029C210.064,47.026,163.041,0,105.033,0z M105.033,205.466
				c-55.477,0-100.439-44.965-100.439-100.436c0-55.467,44.963-100.438,100.439-100.438c55.471,0,100.437,44.971,100.437,100.438
				C205.47,160.501,160.504,205.466,105.033,205.466z"/>
			<path fill-rule="evenodd" clip-rule="evenodd" fill="#595A5C" d="M100.139,171.644c0.648-0.912,1.262-1.773,1.834-2.574
				c-0.131-0.389-0.356-0.394-0.564-0.394c-1.662-0.017-3.325-0.036-4.984-0.03c-0.426,0-0.844,0.049-1.277,0.078
				c-0.229-0.419,0.049-0.678,0.137-0.975c0.301-0.958,0.301-1.941-0.063-2.944c-0.098-0.269-0.306-0.513-0.514-0.857
				c-0.256,0.275-0.447,0.473-0.644,0.68c-0.775,0.787-1.483,1.67-2.349,2.346c-1.297,1.006-2.68,1.926-4.257,2.482
				c-2.343,0.82-4.143,2.348-5.692,4.203c-1.002,1.201-1.934,2.465-2.896,3.703c-0.147,0.195-0.307,0.391-0.454,0.582
				c-0.315,0.416-0.734,0.615-1.272,0.674c-2.863,0.32-5.753,0.377-8.678,0.002c-2.69-0.35-4.953-1.682-6.909-3.696
				c-0.097-0.094-0.188-0.199-0.267-0.314c-0.048-0.07-0.08-0.154-0.164-0.33c0.091-0.246,0.222-0.551,0.336-0.85
				c0.286-0.767,0.381-1.578,0.342-2.408c-0.045-1.031-0.813-1.847-1.823-2.002c-0.804-0.121-1.524,0.072-2.161,0.48
				c-0.485,0.311-0.934,0.672-1.367,1.047c-0.98,0.839-1.182,1.973-0.805,3.268c0.24,0.824,0.658,1.563,1.191,2.26
				c1.238,1.652,2.787,2.928,4.463,4.09c2.823,1.961,5.899,2.806,9.122,3.092c2.233,0.202,4.445,0.168,6.636-0.031
				c0.463-0.035,0.924-0.066,1.41-0.098c0.798,1.373,1.717,2.602,2.766,3.725c1.956,2.111,4.162,3.859,6.773,4.992
				c3.483,1.512,7.059,2.441,10.716,2.943c0.119,0.012,0.24-0.023,0.449-0.05c-0.585-0.881-1.546-1.267-2.116-2.114
				c0.145-0.049,0.256-0.127,0.365-0.109c4.17,0.581,8.297,0.529,12.4,0.192c5.527-0.458,10.984-1.194,16.234-2.772
				c4.72-1.412,9.263-3.186,13.676-5.27c3.925-1.855,7.727-3.923,11.387-6.209c4.375-2.738,8.502-5.793,12.287-9.291
				c4.417-4.094,8-8.857,10.291-14.602c3.299-8.287,3.608-17,1.223-26.113c-0.542-2.055-1.545-3.891-2.715-5.676
				c-1.87-2.836-3.963-5.51-6.229-8.041c-2.76-3.086-5.848-5.77-9.494-7.67c-3.082-1.605-6.256-2.343-9.553-1.914
				c-2.211,0.281-4.189,1.08-6.025,2.223c-2.172,1.371-3.984,3.164-5.795,4.963c-1.872,1.855-3.531,3.904-5.014,6.104
				c-2.393,3.569-4.115,7.514-5.314,11.733c-0.951,3.347-1.565,6.791-2.223,10.228c-0.566,2.938-1.126,5.874-1.793,8.773
				c-0.99,4.234-2.471,8.262-4.407,12.066c-0.997,1.977-2.191,3.828-3.685,5.434c-1.498,1.613-3.261,2.877-5.346,3.676
				c-2.149,0.828-4.418,1.219-6.738,1.426C100.482,171.779,100.36,171.708,100.139,171.644z"/>
			<path fill-rule="evenodd" clip-rule="evenodd" fill="#595A5C" d="M129.926,42.598c-0.346-1.604-0.869-3.174-1.461-4.715
				c-0.623-1.637-1.368-3.227-2.281-4.729c-2.285-3.774-5.701-5.904-9.949-6.777c-0.752-0.157-1.547-0.114-2.323-0.131
				c-0.284-0.002-0.581,0.063-0.865,0.139c-0.522,0.133-1.046,0.322-1.222,0.912c-0.192,0.627,0.271,0.99,0.646,1.359
				c0.311,0.305,0.688,0.544,1.008,0.844c0.211,0.196,0.407,0.416,0.553,0.662c0.188,0.311,0.088,0.695-0.216,0.898
				c-0.196,0.137-0.41,0.277-0.641,0.338c-1.31,0.338-2.601,0.324-3.828-0.335c-2.005-1.079-2.617-3.288-1.431-5.233
				c0.813-1.328,1.973-2.277,3.413-2.857c1.941-0.781,3.944-0.977,6.017-0.597c2.047,0.378,3.922,1.138,5.641,2.296
				c2.199,1.483,4.078,3.313,5.832,5.29c2.297,2.584,4.346,5.361,6.166,8.312c0.252,0.41,0.529,0.814,0.811,1.215
				c0.08,0.111,0.211,0.195,0.363,0.328c1.82-0.049,3.641,0.184,5.449,0.639c1.805,0.455,3.35,1.344,4.564,2.732
				c0.924,1.061,1.781,2.188,2.557,3.365c1.391,2.109,2.672,4.294,4.045,6.42c1.462,2.277,3.305,4.187,5.541,5.741
				c3.277,2.281,6.526,4.605,9.758,6.949c2.363,1.717,4.665,3.531,6.776,5.555c1.478,1.41,2.903,2.882,4.263,4.398
				c2.293,2.588,3.904,5.58,4.992,8.844c2.17,6.505,2.941,13.187,2.345,20.015c-0.22,2.598-0.987,5.061-2.097,7.408
				c-0.289,0.609-0.666,1.201-1.115,1.701c-1.033,1.15-2.268,1.246-3.527,0.358c-0.857-0.604-1.513-1.39-1.822-2.4
				c-0.361-1.211-0.73-2.43-0.971-3.67c-0.459-2.438-0.815-4.896-1.241-7.34c-0.526-2.998-1.557-5.828-3.026-8.49
				c-1.449-2.625-3.529-4.633-6.074-6.18c-1.963-1.189-4.033-2.162-6.178-2.967c-2.783-1.043-5.585-2.031-8.381-3.037
				c-2.658-0.955-5.291-1.971-7.853-3.178c-7.63-3.611-13.247-9.288-17.195-16.683c-0.767-1.434-1.132-2.972-1.198-4.615
				c-0.166-3.857,0.657-7.445,2.675-10.742C128.879,43.934,129.416,43.301,129.926,42.598z"/>
			<path fill-rule="evenodd" clip-rule="evenodd" fill="#595A5C" d="M63.683,58.039c-0.04-0.763-0.069-1.283-0.093-1.843
				c-1.184-0.188-2.301-0.048-3.405,0.032c-3.86,0.273-7.701,0.154-11.525-0.404c-2.825-0.415-5.146-1.717-7.001-3.883
				c-2.001-2.329-3.378-4.997-4.375-7.883c-0.043-0.131-0.021-0.286-0.033-0.51c0.234-0.121,0.466-0.285,0.726-0.381
				c3.97-1.396,8.034-1.949,12.237-1.441c2.447,0.289,4.782,0.912,7.016,1.941c1.924,0.887,3.643,2.064,5.131,3.584
				c0.234,0.236,0.486,0.459,0.721,0.684c0.496-0.217,0.348-0.605,0.358-0.91c0.069-1.754,0.06-3.517,0.419-5.243
				c0.632-3.003,1.434-5.965,2.479-8.838c0.682-0.382,1.381-0.236,2.047-0.27c0.665-0.037,1.336-0.322,2.102,0
				c-0.126,0.328-0.231,0.637-0.357,0.939c-1.315,3.165-2.325,6.411-2.873,9.803c-0.388,2.383-0.35,4.754-0.102,7.146
				c0.224,2.133,0.379,4.271,0.555,6.412c0.043,0.475-0.026,0.97,0.285,1.431c0.148-0.033,0.3-0.027,0.408-0.086
				c4.04-2.256,8.391-3.652,12.844-4.792c1.515-0.387,3.036-0.65,4.618-0.676c3.063-0.063,5.888,0.748,8.547,2.19
				c4.238,2.291,7.409,5.687,9.779,9.836c2.538,4.434,3.907,9.231,4.21,14.325c0.283,4.592,0.031,9.16-0.542,13.723
				c-0.942,7.525-2.636,14.877-5.074,22.049c-0.753,2.217-1.608,4.398-2.684,6.482c-0.163,0.303-0.334,0.596-0.481,0.904
				c-0.97,1.979-2.641,2.764-4.744,2.855c-1.475,0.063-2.914-0.213-4.359-0.425c-0.771-0.112-1.55-0.175-2.329-0.214
				c-0.791-0.037-1.322,0.31-1.79,1.01c-1.864,2.783-4.562,4.16-7.874,4.355c-1.304,0.079-2.518-0.266-3.639-0.912
				c-0.509-0.287-1.03-0.58-1.474-0.945c-0.968-0.807-2.117-1.188-3.284-1.545c-0.647-0.201-1.245-0.172-1.851,0.107
				c-0.488,0.221-0.975,0.451-1.459,0.672c-2.05,0.939-4.062,0.84-6.041-0.228c-1.346-0.728-2.505-1.692-3.601-2.735
				c-2.308-2.192-4.368-4.6-6.349-7.084c-3.041-3.811-6.059-7.647-8.744-11.729c-2.365-3.598-4.438-7.348-5.885-11.42
				c-1.424-4.018-1.965-8.143-1.555-12.379c0.273-2.83,1.06-5.553,2.135-8.178c1.045-2.535,2.297-4.959,3.778-7.263
				c1.761-2.74,3.944-5.088,6.74-6.809c3.036-1.861,6.33-2.691,9.893-2.552c1.723,0.066,3.395,0.294,5.034,0.814
				C62.629,57.891,63.07,57.924,63.683,58.039z M44.166,99.121c0.616-0.565,0.627-0.559,0.705-1.194
				c0.161-1.269,0.008-2.525-0.141-3.785c-0.25-2.127-0.541-4.25-0.695-6.383c-0.146-2.038-0.293-4.087,0.166-6.111
				c0.16-0.705-0.033-1.365-0.557-1.887c-0.578-0.578-1.273-0.613-2.098-0.342c-0.152,0.439-0.348,0.885-0.463,1.35
				c-1.164,4.539-1.112,9.053,0.396,13.512c0.394,1.15,0.871,2.274,1.369,3.383C43.127,98.269,43.443,98.9,44.166,99.121z
				 M47.238,69.895c-0.004-0.735,0.005-1.465-0.386-2.125c-0.399-0.674-1.145-0.682-1.534-0.119c-1.228,1.75-2.448,3.509-3.38,5.445
				c-0.222,0.479-0.407,0.997-0.499,1.516c-0.195,1.127,0.646,2.213,1.91,2.563c1.146,0.313,1.965-0.052,2.452-1.213
				C46.628,74.027,47.094,71.992,47.238,69.895z"/>
		</g>
	</g>
</g>
<g id="Layer_2">
</g>
</svg>
