<?xml version="1.0" encoding="utf-8"?>
<!-- Generator: Adobe Illustrator 22.0.1, SVG Export Plug-In . SVG Version: 6.00 Build 0)  -->
<svg version="1.1" xmlns="http://www.w3.org/2000/svg" xmlns:xlink="http://www.w3.org/1999/xlink" x="0px" y="0px"
	 viewBox="0 0 244.666 265.676" enable-background="new 0 0 244.666 265.676" xml:space="preserve">
<g id="Layer_1">
	<g>
		<path fill="#595A5C" d="M123.088,0C65.079,0,18.059,47.027,18.059,105.033c0,58.012,47.021,105.029,105.029,105.029
			c58.012,0,105.035-47.018,105.035-105.029C228.123,47.027,181.1,0,123.088,0z M123.088,205.471
			c-55.472,0-100.437-44.965-100.437-100.438c0-55.469,44.965-100.439,100.437-100.439c55.474,0,100.439,44.971,100.439,100.439
			C223.527,160.506,178.561,205.471,123.088,205.471z"/>
		<g>
			<path fill="#414142" d="M19.978,225.539v2.619h-8.589v28.334H8.541v-28.334H0v-2.619H19.978z"/>
			<path fill="#414142" d="M34.393,256.723c-3.457,0-6.266-1.082-8.427-3.238c-2.155-2.16-3.235-5.051-3.235-8.68
				c0-3.629,0.947-6.516,2.847-8.658c1.897-2.141,4.317-3.211,7.257-3.211c2.939,0,5.249,0.932,6.932,2.801
				c1.686,1.867,2.528,4.498,2.528,7.896c0,1.043-0.063,1.867-0.186,2.48H25.671c0.214,2.572,1.1,4.541,2.66,5.9
				c1.564,1.361,3.645,2.043,6.245,2.043c2.603,0,4.688-0.521,6.247-1.561v2.848C38.99,256.262,36.846,256.723,34.393,256.723z
				 M39.4,243.541v-1.055c0-2.111-0.59-3.797-1.77-5.051c-1.176-1.256-2.752-1.885-4.728-1.885c-1.973,0-3.618,0.689-4.938,2.066
				c-1.316,1.377-2.08,3.354-2.294,5.924H39.4z"/>
			<path fill="#414142" d="M50.788,233.209v3.811c1.313-2.785,3.491-4.178,6.522-4.178c3.73,0,6.03,1.531,6.887,4.594
				c1.441-3.063,3.737-4.594,6.889-4.594c2.448,0,4.271,0.68,5.463,2.043c1.194,1.363,1.795,3.145,1.795,5.35v16.258h-2.805v-15.385
				c0-3.705-1.62-5.557-4.866-5.557c-1.595,0-3.009,0.734-4.247,2.205c-1.242,1.469-1.86,3.43-1.86,5.877v12.859h-2.804v-15.385
				c0-3.705-1.621-5.557-4.866-5.557c-1.595,0-3.008,0.734-4.248,2.205c-1.237,1.469-1.859,3.43-1.859,5.877v12.859h-2.8v-23.283
				H50.788z"/>
			<path fill="#414142" d="M87.845,233.209v3.398c1.623-2.51,4.011-3.766,7.165-3.766c3.152,0,5.604,1.141,7.348,3.42
				c1.744,2.281,2.615,5.145,2.615,8.59c0,3.443-0.932,6.307-2.799,8.586c-1.868,2.281-4.293,3.422-7.278,3.422
				c-2.984,0-5.336-1.287-7.051-3.859v12.676h-2.8v-32.467H87.845z M94.873,254.197c2.078,0,3.796-0.836,5.141-2.506
				c1.348-1.666,2.024-3.941,2.024-6.816c0-2.877-0.653-5.16-1.952-6.846c-1.305-1.682-2.946-2.523-4.937-2.523
				c-1.993,0-3.707,0.727-5.145,2.182c-1.44,1.453-2.16,3.879-2.16,7.277c0,1.715,0.238,3.207,0.714,4.479s1.08,2.242,1.813,2.914
				C91.81,253.584,93.31,254.197,94.873,254.197z"/>
			<path fill="#414142" d="M120.771,256.723c-3.461,0-6.266-1.082-8.426-3.238c-2.16-2.16-3.241-5.051-3.241-8.68
				c0-3.629,0.949-6.516,2.852-8.658c1.897-2.141,4.313-3.211,7.253-3.211c2.939,0,5.248,0.932,6.933,2.801
				c1.687,1.867,2.528,4.498,2.528,7.896c0,1.043-0.061,1.867-0.185,2.48h-16.439c0.213,2.572,1.104,4.541,2.661,5.9
				c1.563,1.361,3.646,2.043,6.249,2.043c2.599,0,4.683-0.521,6.241-1.561v2.848C125.361,256.262,123.221,256.723,120.771,256.723z
				 M125.777,243.541v-1.055c0-2.111-0.589-3.797-1.769-5.051c-1.18-1.256-2.755-1.885-4.73-1.885s-3.62,0.689-4.938,2.066
				c-1.314,1.377-2.081,3.354-2.294,5.924H125.777z"/>
			<path fill="#414142" d="M137.164,233.209v3.949c1.288-2.816,3.46-4.223,6.525-4.223c0.208,0,0.592,0.029,1.145,0.092v2.846
				c-0.612-0.184-1.225-0.277-1.841-0.277c-1.648,0-3.033,0.818-4.154,2.457c-1.119,1.639-1.676,3.453-1.676,5.443v12.996h-2.799
				v-23.283H137.164z"/>
			<path fill="#414142" d="M155.855,232.842c5.691,0,8.54,2.984,8.54,8.953v14.697h-2.801v-2.711
				c-1.286,1.961-3.522,2.941-6.706,2.941c-2.142,0-3.895-0.637-5.258-1.906c-1.361-1.273-2.04-2.963-2.04-5.076
				c0-2.111,0.861-3.787,2.592-5.027c1.729-1.238,4.018-1.859,6.863-1.859h4.549v-1.059c0-2.08-0.444-3.648-1.331-4.705
				c-0.891-1.057-2.457-1.584-4.705-1.584c-2.254,0-4.343,0.66-6.27,1.975v-3.033C151.064,233.377,153.253,232.842,155.855,232.842z
				 M161.595,245.424h-4.549c-2.171,0-3.793,0.422-4.866,1.264c-1.071,0.842-1.607,1.896-1.607,3.168
				c0,1.27,0.422,2.303,1.264,3.098c0.844,0.799,2.129,1.195,3.856,1.195c1.73,0,3.148-0.504,4.249-1.516
				c1.1-1.01,1.653-2.295,1.653-3.855V245.424z"/>
			<path fill="#414142" d="M175.418,235.596v14.467c0,2.664,1.238,3.994,3.717,3.994c1.223,0,2.267-0.35,3.122-1.057v2.848
				c-0.886,0.584-1.913,0.875-3.076,0.875c-4.407,0-6.61-2.266-6.61-6.797v-14.33h-3.813v-2.387h3.813v-5.832h2.848v5.832h6.656
				v2.387H175.418z"/>
			<path fill="#414142" d="M202.327,233.209h2.802v23.283h-2.802v-4.178c-1.226,2.996-3.689,4.498-7.392,4.498
				c-2.27,0-4.066-0.682-5.399-2.043c-1.329-1.361-1.996-3.16-1.996-5.397v-16.164h2.801v15.383c0,1.775,0.466,3.139,1.4,4.088
				c0.934,0.949,2.165,1.424,3.697,1.424c2.048,0,3.71-0.734,4.981-2.205c1.27-1.469,1.907-3.383,1.907-5.74V233.209z"/>
			<path fill="#414142" d="M214.91,233.209v3.949c1.286-2.816,3.457-4.223,6.521-4.223c0.213,0,0.597,0.029,1.148,0.092v2.846
				c-0.613-0.184-1.228-0.277-1.837-0.277c-1.652,0-3.037,0.818-4.156,2.457c-1.117,1.639-1.676,3.453-1.676,5.443v12.996h-2.804
				v-23.283H214.91z"/>
			<path fill="#414142" d="M236.767,256.723c-3.46,0-6.266-1.082-8.427-3.238c-2.158-2.16-3.237-5.051-3.237-8.68
				c0-3.629,0.948-6.516,2.849-8.658c1.898-2.141,4.316-3.211,7.256-3.211c2.939,0,5.248,0.932,6.935,2.801
				c1.683,1.867,2.524,4.498,2.524,7.896c0,1.043-0.061,1.867-0.185,2.48h-16.439c0.215,2.572,1.101,4.541,2.662,5.9
				c1.562,1.361,3.643,2.043,6.246,2.043c2.6,0,4.684-0.521,6.244-1.561v2.848C241.357,256.262,239.219,256.723,236.767,256.723z
				 M241.775,243.541v-1.055c0-2.111-0.592-3.797-1.77-5.051c-1.179-1.256-2.758-1.885-4.732-1.885c-1.973,0-3.62,0.689-4.936,2.066
				c-1.318,1.377-2.08,3.354-2.295,5.924H241.775z"/>
		</g>
		<g>
			<path fill="#595A5C" d="M137.545,137.291V35.264c0-5.65-6.473-11.537-14.453-11.537c-7.986,0-14.461,5.887-14.461,11.537v102.027
				c-8.275,4.934-13.821,13.971-13.821,24.303c0,15.621,12.661,28.283,28.282,28.283c15.616,0,28.281-12.662,28.281-28.283
				C151.373,151.262,145.822,142.225,137.545,137.291z M123.092,180.98c-10.709,0-19.387-8.682-19.387-19.387
				c0-8.205,5.112-15.203,12.313-18.029v-9.359v-6.852V38.506c0-3.907,3.167-7.069,7.073-7.069c3.901,0,7.068,3.162,7.068,7.069
				v88.847v6.852v9.359c7.207,2.822,12.314,9.824,12.314,18.029C142.475,172.299,133.792,180.98,123.092,180.98z"/>
			<path fill="#595A5C" d="M123.092,58.572c-0.953,0-1.723,0.76-1.723,1.701V162.16c0,0.951,0.77,1.723,1.723,1.723
				c0.946,0,1.719-0.771,1.719-1.723V60.273C124.811,59.332,124.038,58.572,123.092,58.572z"/>
		</g>
	</g>
</g>
<g id="Layer_2">
</g>
</svg>
