<?xml version="1.0" encoding="utf-8"?>
<!-- Generator: Adobe Illustrator 22.0.1, SVG Export Plug-In . SVG Version: 6.00 Build 0)  -->
<svg version="1.1" xmlns="http://www.w3.org/2000/svg" xmlns:xlink="http://www.w3.org/1999/xlink" x="0px" y="0px"
	 viewBox="0 0 211.113 256.703" enable-background="new 0 0 211.113 256.703" xml:space="preserve">
<g id="Layer_1">
	<g>
		<path fill="#595A5C" d="M105.554,0C47.255,0,0,47.262,0,105.561c0,58.297,47.255,105.555,105.554,105.555
			c58.302,0,105.56-47.258,105.56-105.555C211.113,47.262,163.855,0,105.554,0z M105.554,206.498
			c-55.749,0-100.939-45.188-100.939-100.938c0-55.748,45.189-100.943,100.939-100.943c55.753,0,100.944,45.195,100.944,100.943
			C206.498,161.311,161.307,206.498,105.554,206.498z"/>
		<g>
			<path fill="#414142" d="M103.064,256.703l-2.952-8.629H86.359l-3.002,8.629h-3.089l10.98-31.107h4.154l10.757,31.107H103.064z
				 M87.232,245.533h12.05l-5.953-17.537C92.158,231.563,90.129,237.41,87.232,245.533z"/>
			<path fill="#414142" d="M111.604,227.213c-0.37-0.369-0.557-0.834-0.557-1.387c0-0.555,0.187-1.023,0.557-1.408
				c0.368-0.383,0.828-0.576,1.385-0.576c0.555,0,1.021,0.193,1.406,0.576c0.385,0.385,0.578,0.854,0.578,1.408
				c0,0.553-0.193,1.018-0.578,1.387c-0.386,0.367-0.852,0.553-1.406,0.553C112.432,227.766,111.972,227.58,111.604,227.213z
				 M111.604,256.703v-23.398h2.814v23.398H111.604z"/>
			<path fill="#414142" d="M124.431,233.305v3.969c1.294-2.83,3.479-4.246,6.554-4.246c0.215,0,0.601,0.031,1.156,0.09v2.863
				c-0.615-0.185-1.231-0.279-1.848-0.279c-1.66,0-3.053,0.824-4.176,2.471c-1.126,1.645-1.687,3.469-1.687,5.471v13.061h-2.813
				v-23.398H124.431z"/>
		</g>
		<g>
			<path fill="#595A5C" d="M123.51,42.447c-5.631,0-10.79,2.025-14.799,5.375c-0.784,0.52-1.299,1.406-1.299,2.416
				c0,1.6,1.297,2.898,2.896,2.898c0.8,0,1.517-0.324,2.04-0.844c3.017-2.541,6.909-4.078,11.162-4.078
				c9.58,0,17.349,7.766,17.349,17.344c0,9.58-7.769,17.344-17.349,17.344H36.486v5.766h87.023
				c12.766,0,23.114-10.346,23.114-23.109C146.624,52.797,136.275,42.447,123.51,42.447z"/>
			<path fill="#595A5C" d="M151.661,100.557v-0.004H36.486v5.766h115.031c9.579,0,17.345,7.918,17.345,17.607
				c0,9.688-7.766,17.541-17.345,17.541c-4.259,0-8.146-1.555-11.166-4.125c-0.523-0.523-1.242-0.85-2.04-0.85
				c-1.599,0-2.897,1.311-2.897,2.93c0,1.02,0.518,1.918,1.301,2.441c4.009,3.389,9.168,5.436,14.803,5.436
				c12.764,0,23.109-10.465,23.109-23.373C174.627,111.068,164.359,100.637,151.661,100.557z"/>
			<path fill="#595A5C" d="M92.161,119.775H36.486v5.768h55.675c9.577,0,17.341,7.92,17.341,17.603
				c0,9.69-7.766,17.545-17.341,17.545c-4.255,0-8.147-1.557-11.166-4.127c-0.524-0.525-1.244-0.852-2.042-0.852
				c-1.6,0-2.895,1.313-2.895,2.93c0,1.021,0.517,1.918,1.296,2.443c4.013,3.389,9.169,5.435,14.807,5.435
				c12.764,0,23.109-10.465,23.109-23.375C115.271,130.24,104.925,119.775,92.161,119.775z"/>
		</g>
	</g>
</g>
<g id="Layer_2">
</g>
</svg>
