<?xml version="1.0" encoding="utf-8"?>
<!-- Generator: Adobe Illustrator 22.0.1, SVG Export Plug-In . SVG Version: 6.00 Build 0)  -->
<svg version="1.1" xmlns="http://www.w3.org/2000/svg" xmlns:xlink="http://www.w3.org/1999/xlink" x="0px" y="0px"
	 viewBox="0 0 300 300" enable-background="new 0 0 300 300" xml:space="preserve">
<g id="Layer_1">
	<g>
		<path fill="none" stroke="#58595B" stroke-width="0.7734" stroke-linecap="round" stroke-linejoin="round" d="M22.6,151.3
			c0,0,117-53.2,119.6-53.8c2.5-0.6,4.9-0.5,7.6,0.2c2.7,0.7,5.7,1.9,125.8,51.1"/>
		<path fill="none" stroke="#58595B" stroke-width="0.7734" stroke-linecap="round" stroke-linejoin="round" d="M127.6,149.1
			c0,0.2,0,0.5,0,0.7C127.6,149.6,127.6,149.3,127.6,149.1c-0.1,0.1-0.3,0.2-0.3,0.3c0,0,0.2,0.3,0.3,0.4"/>
		<polyline fill="none" stroke="#58595B" stroke-width="0.7734" stroke-linecap="round" stroke-linejoin="round" points="
			217.6,139.4 209.6,128.4 209.7,126.9 		"/>
		<polyline fill="none" stroke="#58595B" stroke-width="0.7734" stroke-linecap="round" stroke-linejoin="round" points="
			64.2,163.1 64.2,164.7 67.7,170.1 		"/>
		<polyline fill="none" stroke="#58595B" stroke-width="0.7734" stroke-linecap="round" stroke-linejoin="round" points="
			46.8,161.4 64.2,163.1 69.1,170.7 		"/>
		<polyline fill="none" stroke="#58595B" stroke-width="0.7734" stroke-linecap="round" stroke-linejoin="round" points="218,138.4 
			245.4,141.2 245.4,142.8 244,142.6 		"/>
		<polyline fill="none" stroke="#58595B" stroke-width="0.7734" stroke-linecap="round" stroke-linejoin="round" points="
			232.1,148.2 233.5,148.3 241.4,159.1 		"/>
		<polyline fill="none" stroke="#58595B" stroke-width="0.7734" stroke-linecap="round" stroke-linejoin="round" points="
			99.6,179.5 99.6,177.9 82.1,176.1 		"/>
		<polyline fill="none" stroke="#58595B" stroke-width="0.7734" stroke-linecap="round" stroke-linejoin="round" points="98,179.4 
			99.6,179.5 103.2,184.9 		"/>
		<polyline fill="none" stroke="#58595B" stroke-width="0.7734" stroke-linecap="round" stroke-linejoin="round" points="
			101.1,184.1 97.6,178.8 85.6,177.6 		"/>
		<path fill="none" stroke="#58595B" stroke-width="0.7734" stroke-linecap="round" stroke-linejoin="round" d="M218,139.5l0-1.1
			l-8.4-11.5l-27.1-2.7l-1.4-1.9c-2.3-3.2-4.6-6.4-6.8-9.6"/>
		<polyline fill="none" stroke="#58595B" stroke-width="0.7734" stroke-linecap="round" stroke-linejoin="round" points="
			74.9,158.9 76.5,159.1 84,170.4 		"/>
		<polyline fill="none" stroke="#58595B" stroke-width="0.7734" stroke-linecap="round" stroke-linejoin="round" points="
			135.5,194.5 135.5,192.8 117.8,191 		"/>
		<path fill="none" stroke="#58595B" stroke-width="0.7734" stroke-linecap="round" stroke-linejoin="round" d="M150.7,152.7
			c0.1-0.1,0.1-0.2,0-0.3C150.7,152.5,150.7,152.6,150.7,152.7c0-0.1,0-0.2,0-0.3"/>
		<polyline fill="none" stroke="#58595B" stroke-width="0.7734" stroke-linecap="round" stroke-linejoin="round" points="
			137.1,199.1 133.5,193.8 121.3,192.5 		"/>
		<path fill="none" stroke="#58595B" stroke-width="0.7734" stroke-linecap="round" stroke-linejoin="round" d="M170.5,130.7l0-1.1
			l-6.5-9.2l-1.6-2.3l-5.4-0.4c-7.2-0.7-14.5-1.5-21.7-2.2c-0.3,0-0.6,0-0.8,0c-0.2,0-0.6,0.2-0.6,0.5c0,0.2,0.2,0.3,0.4,0.4
			c0.2,0.1,0.4,0.1,0.5,0.1c8.6,0.9,17.1,1.7,25.7,2.6c2.7,3.8,5.4,7.7,8.1,11.5c9.1,0.9,18.2,1.8,27.2,2.8
			c2.8,3.9,5.6,7.7,8.3,11.6c9.1,0.9,18.3,1.9,27.4,2.8c2.7,3.7,5.4,7.4,8.1,11.2c0.4,0.5,1.9,0.5,2.3,0c0.1-0.1,0.1-0.2,0-0.3
			c0.1,0.1,0.1,0.2,0,0.3v-0.3l0,0.3l0-0.3l-8.6-11.7l0,1.6l0-1.6l-27.4-2.8l0,1.1l0-1.1l-8.4-11.6l0,1.6l-1.5-0.1l1.5-1.4
			l-27.2-2.8"/>
		<polyline fill="none" stroke="#58595B" stroke-width="0.7734" stroke-linecap="round" stroke-linejoin="round" points="
			110.4,173.6 111.9,173.8 111.9,172.2 120,184.2 147.8,187.1 147.8,188.7 		"/>
		<polyline fill="none" stroke="#58595B" stroke-width="0.7734" stroke-linecap="round" stroke-linejoin="round" points="
			146.2,188.5 147.8,188.7 155.4,199.9 		"/>
		<path fill="none" stroke="#58595B" stroke-width="0.7734" stroke-linecap="round" stroke-linejoin="round" d="M20.5,152.8
			c0,0,86.4,36.3,91.7,38.3c10.3,3.9,20.4,8.5,30.6,12.8c1.8,0.8,3.6,1.2,5.5,1.6c1.9,0.3,3.8,0.4,5.8,0.4c3.6,0,7.9-0.6,11.2-2.2
			l114-54.1"/>
		<path fill="none" stroke="#58595B" stroke-width="0.7734" stroke-linecap="round" stroke-linejoin="round" d="M279.3,149.6
			c0.5-0.2,1-0.5,1.5-0.7"/>
		<path fill="none" stroke="#58595B" stroke-width="0.7734" stroke-linecap="round" stroke-linejoin="round" d="M147.8,187.1
			c2.8,4,5.5,8.1,8.3,12.1c0,0.1,0.1,0.1,0.1,0.2c0,0.2-0.3,0.4-0.5,0.4c-0.2,0.1-0.4,0.1-0.7,0.1c-0.3,0-1-0.1-1.3-0.4
			c-2.6-3.9-5.2-7.7-7.9-11.5c-9.3-1-18.5-1.9-27.8-2.9c-2.7-4-5.4-8-8.1-12c-9.2-0.9-18.4-1.9-27.6-2.8c-2.6-4-5.2-7.9-7.8-11.9
			c-8.7-0.9-17.4-1.8-26-2.7c-0.2,0-0.4,0-0.5-0.1c-0.1-0.1-0.4-0.2-0.4-0.4c0-0.3,0.4-0.4,0.6-0.5c0.3-0.1,0.6-0.1,0.8,0
			c9.1,0.9,18.3,1.9,27.4,2.8c2.6,4,5.2,7.9,7.8,11.9c9.2,1,18.4,1.9,27.6,2.8"/>
		<path fill="none" stroke="#58595B" stroke-width="0.7734" stroke-linecap="round" stroke-linejoin="round" d="M141,161.8
			c4.3-2,8.6-4,13-6c0.1-0.1,0.3-0.1,0.4-0.1c0.1,0,0.2,0,0.3,0c0,0,0.1,0,0.1,0c0.7,0.1,1.3,0.1,2,0.2c1,0.1,1.9,0.2,2.9,0.3
			c1.9,0.2,3.8,0.4,5.7,0.6c3.8,0.4,7.6,0.8,11.5,1.2"/>
		<path fill="none" stroke="#58595B" stroke-width="0.7734" stroke-linecap="round" stroke-linejoin="round" d="M163.9,164
			c-0.1,0.1-0.3,0.1-0.5,0.1c-0.1,0-0.2,0-0.3,0c0,0-0.1,0-0.1,0c-0.8-0.1-1.5-0.2-2.3-0.2c-1.1-0.1-2.1-0.2-3.2-0.3
			c-2.1-0.2-4.2-0.4-6.3-0.6c-4.2-0.4-8.4-0.9-12.6-1.3c-0.1,0-0.1,0-0.2,0c-0.2,0-0.2-0.1,0-0.2c5.1-2.4,10.3-4.8,15.4-7.2
			c0.1-0.1,0.3-0.1,0.4-0.1c0.1,0,0.2,0,0.3,0c0,0,0.1,0,0.2,0c0.8,0.1,1.5,0.2,2.3,0.2c1.1,0.1,2.1,0.2,3.1,0.3
			c2.1,0.2,4.2,0.4,6.3,0.6c4.2,0.4,8.4,0.9,12.6,1.3c0.1,0,0.1,0,0.2,0c0,0,0.1,0,0.1,0.1s-0.1,0.1-0.1,0.1
			C174.2,159.2,169,161.6,163.9,164z"/>
		<path fill="none" stroke="#58595B" stroke-width="0.7734" stroke-linecap="round" stroke-linejoin="round" d="M20.5,149.7
			C20.4,149.8,20.5,149.8,20.5,149.7C20.5,149.8,20.5,149.8,20.5,149.7c0.4,0.7,1.6,1.3,2.2,1.5c41.2,17.2,82.4,34.4,123.6,51.6
			c0.3,0.1,0.5,0.2,0.8,0.3c2.3,0.8,5.1,1.1,7.5,1c2.3-0.1,5.2-0.5,7.4-1.5c38.6-18.3,77.1-36.6,115.7-54.9c0.2-0.1,0.4-0.2,0.6-0.3
			c0.2-0.1,0.5-0.3,0.7-0.4c0.1-0.1,0.2-0.2,0.3-0.3c0,0,0.1-0.1,0.1-0.2c0,0,0.1-0.1,0.1-0.1c0,0,0,0,0,0c0,0,0,0,0,0c0,0,0,0,0,0
			l0,0c0.4-1.8-0.4-3-2.3-3.6C160.4,95.2,158.2,94.2,156,93.4c-2.2-0.8-4.4-1.6-6.6-1.9c-2.2-0.3-4.5-0.3-6.5-0.1
			c-2,0.2-3.8,0.4-6.9,1.9c-5.1,2.4-10.2,4.8-15.3,7.2c0,0-66.4,29.7-98.3,43.7C20.5,145.3,19.4,147.7,20.5,149.7"/>
		<path fill="none" stroke="#58595B" stroke-width="0.7734" stroke-linecap="round" stroke-linejoin="round" d="M120,161.4
			c3.5-1.6,7.1-3.3,10.6-4.9c0.1,0,0.3-0.1,0.3-0.3c0-0.5,0-1.1,0-1.6c0-0.1,0-0.1-0.1-0.1c-1.1-1.5-2.1-3.1-3.2-4.7
			c0,0-0.2-0.3-0.3-0.4c-0.1-0.2,0.1-0.3,0.3-0.3c5.1-2.4,10.3-4.7,15.4-7.1c0.1,0,0.2-0.1,0.3-0.1c0,0,0.1,0,0.1,0c0,0,0,0,0,0
			c0.1,0.1,0.1,0.1,0.1,0.2c0.2,0.2,0.3,0.5,0.5,0.7c0.3,0.4,0.6,0.9,0.9,1.3c0.6,0.9,1.2,1.8,1.9,2.7c1.2,1.8,2.5,3.6,3.7,5.4
			c0.1,0.1,0.1,0.2,0,0.3c-0.1,0.1-0.1,0.1-0.2,0.1c-9.1,4.2-18.1,8.4-27.2,12.6c-0.1,0.1-0.4,0.1-0.5-0.1c-1.1-1.7-2.2-3.3-3.4-5
			c0,0-0.1-0.1-0.1-0.1c0-0.1,0.2-0.2,0.3-0.3c3.7-1.7,7.4-3.4,11-5.1c0.1,0,0.3-0.1,0.3-0.3"/>
		<path fill="none" stroke="#58595B" stroke-width="0.7734" stroke-linecap="round" stroke-linejoin="round" d="M244.8,163.4
			c-41.8-16.9-83.6-33.8-125.4-50.6c-0.7-0.3-1.8-0.3-2.5,0c-0.2,0.1-0.5,0.3-0.5,0.5c0,0.3,0.3,0.5,0.5,0.5
			c41.8,16.9,83.6,33.8,125.4,50.7"/>
		<path fill="none" stroke="#58595B" stroke-width="0.7734" stroke-linecap="round" stroke-linejoin="round" d="M155.9,146.8
			c0.4-1,1.6-1.8,2.5-2.2c1.3-0.6,2.6-1.2,3.9-1.8c0.1,0,0.2-0.1,0.3,0c0.4,0.6,0.8,1.1,1.2,1.7c0.2,0.3,0.4,0.6,0.6,0.8
			c0.2,0.3,0.4,0.5,0.5,0.9"/>
		<path fill="none" stroke="#58595B" stroke-width="0.7734" stroke-linecap="round" stroke-linejoin="round" d="M128.1,150.5
			c5-2.3,9.9-4.6,14.9-6.9c0.1,0,0.2-0.1,0.3-0.1c0.1,0,0.1,0,0.1,0c0,0,0,0,0,0c0,0,0,0.1,0.1,0.1c0.2,0.2,0.3,0.5,0.5,0.7
			c0.3,0.4,0.6,0.8,0.9,1.2c0.6,0.8,1.1,1.6,1.7,2.5c1.1,1.6,2.3,3.3,3.4,4.9"/>
		<path fill="none" stroke="#58595B" stroke-width="0.7734" stroke-linecap="round" stroke-linejoin="round" d="M254,152.9
			c0,0.1,0,0.2,0,0.3C254,153.1,254,153,254,152.9c0.1,0.1,0.1,0.2,0,0.3v0"/>
		<path fill="none" stroke="#58595B" stroke-width="0.7734" stroke-linecap="round" stroke-linejoin="round" d="M146.7,111
			C146.7,111,146.8,111,146.7,111c8.6,0.9,17.2,1.7,25.7,2.6c2.3,3.3,4.7,6.5,7,9.8l1,1.4l0.9,0.3c8.8,0.9,17.6,1.8,26.5,2.7
			c2.8,3.9,5.6,7.7,8.4,11.6c9.1,0.9,18.3,1.8,27.4,2.8c2.7,3.7,5.5,7.4,8.2,11.1c0.4,0.5,1.9,0.5,2.3,0c0.1-0.1,0.1-0.2,0-0.3
			c-2.9-3.9-5.7-7.8-8.6-11.7"/>
		<path fill="none" stroke="#58595B" stroke-width="0.7734" stroke-linecap="round" stroke-linejoin="round" d="M176.6,195.7
			c-41.9-17.3-83.7-34.7-125.6-52c-0.2-0.1-0.5-0.3-0.5-0.5c0-0.3,0.3-0.4,0.5-0.5c0.7-0.3,1.8-0.3,2.5,0
			c41.9,17.3,83.7,34.6,125.6,52"/>
		<path fill="none" stroke="#58595B" stroke-width="0.7734" stroke-linecap="round" stroke-linejoin="round" d="M162.7,148.3
			c0.3-0.1,0.6-0.3,1-0.4c3.2-1.5,7.4-1.9,10.7-1.8c0.9,0,1.8,0.1,2.7,0.2c0.9,0.1,1.8,0.2,2.7,0.3c0.9,0.1,1.8,0.2,2.7,0.3
			c0.7,0.1,1.3,0.1,2,0.2c0.2,0,0.4,0,0.6,0.1c0,0,0.1,0,0.1,0.1c0,0-0.1,0.1-0.1,0.1c-1.7,0.8-3.4,1.6-5.1,2.4
			c-3.7,1.7-8.7,2.1-12.6,1.7c-2.1-0.2-4.3-0.4-6.4-0.7c-1-0.1-2.2-0.2-3.1-0.8c-0.2-0.1-0.4-0.3-0.5-0.5c-0.2-0.2-0.3-0.5-0.5-0.7
			c-0.3-0.4-0.6-0.9-0.9-1.3c-0.3-0.4-0.4-0.8-0.4-1.3c0-1.5,1.6-2.5,2.7-3c1.3-0.6,2.6-1.2,3.9-1.8c0.1,0,0.2-0.1,0.3,0
			c0.5,0.7,0.9,1.3,1.4,2c0.2,0.3,0.5,0.7,0.7,1c0.2,0.4,0.4,0.7,0.4,1.2C165.1,146.8,163.7,147.8,162.7,148.3
			c-0.1,0-0.2,0.1-0.3,0.1c0,0.5,0,1.1,0,1.6c0.1,0,0.2-0.1,0.3-0.1c0.3-0.1,0.6-0.3,1-0.4c2.8-1.3,6.4-1.8,9.4-1.8
			c1.9,0,2.9,0.1,4.8,0.3c1.6,0.2,3.2,0.3,4.8,0.5"/>
		
			<line fill="none" stroke="#58595B" stroke-width="0.7734" stroke-linecap="round" stroke-linejoin="round" x1="84.3" y1="169.3" x2="84.3" y2="170.4"/>
		<polyline fill="none" stroke="#58595B" stroke-width="0.7734" stroke-linecap="round" stroke-linejoin="round" points="
			133.9,194.3 135.5,194.5 139.2,199.9 		"/>
		<path fill="none" stroke="#58595B" stroke-width="0.7734" stroke-linecap="round" stroke-linejoin="round" d="M138.5,161.4
			c0,0.1,0,0.1,0,0.2C138.5,161.5,138.5,161.4,138.5,161.4c-0.2,0.1-0.2,0.2,0,0.2"/>
		<path fill="none" stroke="#58595B" stroke-width="0.7734" stroke-linecap="round" stroke-linejoin="round" d="M182.1,125.1
			c-0.1-0.1-0.2-0.2-0.3-0.4l-1.3-1.9c-2.1-2.9-4.1-5.7-6.2-8.6c0-0.5,0-1,0-1.6c-9-0.9-18-1.8-27-2.7c-0.3,0-0.5,0-0.8,0.1
			c-0.2,0-0.6,0.2-0.6,0.4c0,0.1,0,0.1,0.1,0.2"/>
		
			<line fill="none" stroke="#58595B" stroke-width="0.7734" stroke-linecap="round" stroke-linejoin="round" x1="182.5" y1="124.2" x2="182.5" y2="125.2"/>
		<path fill="none" stroke="#58595B" stroke-width="0.7734" stroke-linecap="round" stroke-linejoin="round" d="M170.1,130.6
			c-2.6-3.6-5.1-7.2-7.7-10.8v-1.7"/>
		<path fill="none" stroke="#58595B" stroke-width="0.7734" stroke-linecap="round" stroke-linejoin="round" d="M208.2,128.3
			c0.5,0.1,1,0.1,1.4,0.1"/>
		<path fill="none" stroke="#58595B" stroke-width="0.7734" stroke-linecap="round" stroke-linejoin="round" d="M172.8,114.1
			c0.5,0.1,1,0.1,1.5,0.2"/>
		<path fill="none" stroke="#58595B" stroke-width="0.7734" stroke-linecap="round" stroke-linejoin="round" d="M160.9,119.6
			c0.4,0,0.9,0.1,1.3,0.1"/>
		
			<line fill="none" stroke="#58595B" stroke-width="0.7734" stroke-linecap="round" stroke-linejoin="round" x1="197.8" y1="133.9" x2="205.7" y2="145"/>
		
			<line fill="none" stroke="#58595B" stroke-width="0.7734" stroke-linecap="round" stroke-linejoin="round" x1="245.4" y1="142.8" x2="253.3" y2="153.5"/>
		
			<line fill="none" stroke="#58595B" stroke-width="0.7734" stroke-linecap="round" stroke-linejoin="round" x1="135.5" y1="192.8" x2="140.7" y2="200.6"/>
		
			<line fill="none" stroke="#58595B" stroke-width="0.7734" stroke-linecap="round" stroke-linejoin="round" x1="64.2" y1="164.7" x2="62.6" y2="164.6"/>
		
			<line fill="none" stroke="#58595B" stroke-width="0.7734" stroke-linecap="round" stroke-linejoin="round" x1="111.9" y1="173.8" x2="119.6" y2="185.3"/>
		
			<line fill="none" stroke="#58595B" stroke-width="0.7734" stroke-linecap="round" stroke-linejoin="round" x1="120" y1="184.2" x2="120" y2="185.3"/>
		
			<line fill="none" stroke="#58595B" stroke-width="0.7734" stroke-linecap="round" stroke-linejoin="round" x1="99.6" y1="177.9" x2="104.7" y2="185.5"/>
		
			<line fill="none" stroke="#58595B" stroke-width="0.7734" stroke-linecap="round" stroke-linejoin="round" x1="76.5" y1="157.5" x2="76.5" y2="159.1"/>
		<polyline fill="none" stroke="#58595B" stroke-width="0.7734" stroke-linecap="round" stroke-linejoin="round" points="
			65.6,169.2 62.2,164 50.2,162.8 		"/>
		<path fill="none" stroke="#414042" stroke-width="2.3977" stroke-linecap="round" stroke-linejoin="round" d="M147.7,210.3
			c5.1,2.1,10.3,1,14.1-0.9c3.9-1.8,110.8-52.6,114.2-54.3c3.3-1.7,3.5-2.7,3.3-5.5l1.4-0.7c10.2-4.8-0.9-9.6-0.9-9.6l-95-37.8
			c-4.1-1.6-20.7-8.3-28.2-11.2c-7.5-3-16.8-1.7-21.2,0.3S25.3,140,19.5,142.8c-5.8,2.8-6.6,6.8,1,10c0,0-0.9,3.8,3.7,5.7
			C28.8,160.5,147.7,210.3,147.7,210.3z"/>
	</g>
</g>
<g id="Layer_2">
</g>
</svg>
