<?xml version="1.0" encoding="utf-8"?>
<!-- Generator: Adobe Illustrator 22.0.1, SVG Export Plug-In . SVG Version: 6.00 Build 0)  -->
<svg version="1.1" xmlns="http://www.w3.org/2000/svg" xmlns:xlink="http://www.w3.org/1999/xlink" x="0px" y="0px"
	 viewBox="0 0 300 300" enable-background="new 0 0 300 300" xml:space="preserve">
<g id="Layer_1">
	<g>
		<path fill="#FFFFFF" stroke="#414142" stroke-width="2.4661" stroke-linecap="round" stroke-linejoin="round" d="M253.4,237.6
			c-6.4,10.8-47.7,41.9-51,44.4c-15.2,9.5-39.5,1.6-50.1-3.1c-10.7-4.7-80.1-27.3-94.1-34.3c-14-7-15.6-22.2-15.6-37.8
			s0-74.4,0-96.2s19.2-45.5,19.2-45.5s-4.9-0.8-8.8-7.4c-3.8-6.6,3.3-18.4,9.9-26c6.6-7.7,27.4-15.3,44.7-11.2
			c17.3,4.1,23,3.8,27.7,3.8c4.7,0,34.9,1.4,36.4,3.2c1.5,1.8,1.4,4.2,3.3,4.5c1.9,0.3,48.2,5.6,54.7,7.3
			C236,40.9,246.1,50,248,61.3c1.9,11.2,3.6,42.2,5.3,68.5C255.1,156.1,261.7,223.5,253.4,237.6z"/>
		<path fill="none" stroke="#595A5C" stroke-width="0.822" stroke-miterlimit="10" d="M237.2,43.5c0,0-16.6-2.6-25.1,13.6
			c-8.5,16.2-16.2,34-1.6,31.8c13.2-2.1,32.1-19,30.4-26.4c-1.6-7.4-18.1-8-26.9,7.1c-8.8,15.1,1.3,10.6,9.2,4.3
			c7.9-6.3,8-12,3.1-8.2"/>
		<path fill="none" stroke="#595A5C" stroke-width="0.822" stroke-miterlimit="10" d="M169.8,28.2c0,0-35.8,15-40.7,47.6
			c-4.9,32.6-8.9,107.4-8.9,121.9c0,6.6,2.2,2.3,2.2-3.6c0-5.9,3.9-86.6,8-117.5c6.9-34.8,39.5-44.5,40-46.2
			C171,28.7,170.5,27.9,169.8,28.2z"/>
		<path fill="none" stroke="#595A5C" stroke-width="0.822" stroke-miterlimit="10" d="M120.2,200.8c0,0-32.4-8.1-33.8-10.2
			c-1.4-2.1-0.7-28.5-0.6-30.7c0.1-2.2-0.6-28.4,2.3-60.5c3.4-38.2,22.4-61.2,38.6-75.5"/>
		<path fill="none" stroke="#595A5C" stroke-width="0.822" stroke-miterlimit="10" d="M130.4,76.6l75.3,12.5c0,0-4.8,11.3-13.8,21.5
			c-9,10.1-14.2,23.7-14.2,42.3c0,18.6,4.1,133.6,4.1,133.6h3.8c0,0-4.1-123.4-4.1-135c0-11.6,3-28.5,15.1-40.8
			c12.1-12.3,12.6-21.5,12.6-21.5"/>
		<line fill="none" stroke="#595A5C" stroke-width="0.822" stroke-miterlimit="10" x1="93.9" y1="71.1" x2="62.4" y2="64.9"/>
		<g>
			<g>
				<polyline fill="none" stroke="#595A5C" stroke-width="0.822" stroke-miterlimit="10" points="114.5,195.7 115.7,196.1 115,195 
									"/>
				
					<line fill="none" stroke="#595A5C" stroke-width="0.822" stroke-miterlimit="10" stroke-dasharray="2.5852,2.5852" x1="113.6" y1="192.8" x2="89.6" y2="154.5"/>
				<polyline fill="none" stroke="#595A5C" stroke-width="0.822" stroke-miterlimit="10" points="88.9,153.4 88.3,152.4 89.5,152.6 
									"/>
				
					<line fill="none" stroke="#595A5C" stroke-width="0.822" stroke-miterlimit="10" stroke-dasharray="2.6681,2.6681" x1="92.1" y1="153.2" x2="116.9" y2="158.5"/>
				<polyline fill="none" stroke="#595A5C" stroke-width="0.822" stroke-miterlimit="10" points="118.2,158.8 119.4,159.1 
					118.5,159.9 				"/>
				
					<line fill="none" stroke="#595A5C" stroke-width="0.822" stroke-miterlimit="10" stroke-dasharray="2.3362,2.3362" x1="116.7" y1="161.5" x2="90" y2="186"/>
				<polyline fill="none" stroke="#595A5C" stroke-width="0.822" stroke-miterlimit="10" points="89.2,186.8 88.3,187.6 89.4,188 
									"/>
				
					<line fill="none" stroke="#595A5C" stroke-width="0.822" stroke-miterlimit="10" stroke-dasharray="2.3837,2.3837" x1="91.7" y1="188.7" x2="113.3" y2="195.4"/>
			</g>
		</g>
	</g>
</g>
<g id="Layer_2">
</g>
</svg>
