<?xml version="1.0" encoding="utf-8"?>
<!-- Generator: Adobe Illustrator 22.0.1, SVG Export Plug-In . SVG Version: 6.00 Build 0)  -->
<svg version="1.1" xmlns="http://www.w3.org/2000/svg" xmlns:xlink="http://www.w3.org/1999/xlink" x="0px" y="0px"
	 viewBox="0 0 146.981 146.98" enable-background="new 0 0 146.981 146.98" xml:space="preserve">
<g id="Layer_1">
	<g>
		<g>
			<path fill-rule="evenodd" clip-rule="evenodd" fill="#070706" d="M97.26,94.053c-0.173,0.365-0.305,0.813-0.563,1.168
				c-1.489,2.037-3.31,3.767-5.26,5.344c-1.081,0.873-2.334,0.762-3.295-0.227c-1.044-1.072-1.033-2.346-0.011-3.443
				c1.505-1.615,3.045-3.205,4.672-4.697c0.8-0.734,1.804-0.994,2.936-0.395C96.666,92.293,96.896,93.127,97.26,94.053z"/>
			<path fill-rule="evenodd" clip-rule="evenodd" fill="#080807" d="M75.755,110.43c-0.103-0.578,0.103-1.201,0.513-1.627
				c1.683-1.748,3.385-3.486,5.171-5.129c1.004-0.924,2.118-0.553,3.062,0.242c0.948,0.797,1.11,1.863,0.464,2.855
				c-1.541,2.363-3.476,4.414-5.896,5.857C77.586,113.514,75.806,112.24,75.755,110.43z"/>
			<path fill-rule="evenodd" clip-rule="evenodd" fill="#080707" d="M54.677,108.063c-0.134-0.787,0.186-1.354,0.69-1.871
				c1.432-1.465,2.779-3.021,4.293-4.395c1.125-1.02,2.492-1.639,3.802-0.186c1.209,1.34,0.89,2.615-0.302,3.799
				c-1.456,1.449-2.927,2.883-4.35,4.363c-0.875,0.91-1.927,0.848-2.897,0.455C55.037,109.875,54.509,109.082,54.677,108.063z"/>
			<path fill-rule="evenodd" clip-rule="evenodd" fill="#070606" d="M31.253,112.988c-1.165-0.186-1.851-0.822-2.377-1.713
				c-0.572-0.971-0.161-1.865,0.423-2.508c1.582-1.738,3.257-3.398,4.977-5.002c1.043-0.973,2.277-0.762,3.263,0.104
				c0.828,0.729,1.355,1.787,0.598,2.834c-1.605,2.219-3.61,4.076-5.705,5.824C32.104,112.801,31.599,112.859,31.253,112.988z"/>
			<path fill-rule="evenodd" clip-rule="evenodd" fill="#060505" d="M75.749,91.523c0.054,0.723-0.03,1.355-0.589,1.898
				c-1.533,1.486-3.016,3.023-4.543,4.516c-1.09,1.064-2.406,1.189-3.481,0.193c-1.015-0.939-1.347-2.266-0.244-3.449
				c1.557-1.668,3.151-3.303,4.804-4.875c0.843-0.803,1.957-0.854,2.977-0.35C75.472,89.854,75.894,90.588,75.749,91.523z"/>
			<path fill-rule="evenodd" clip-rule="evenodd" fill="#030303" d="M50.064,93.881c0.121,0.631-0.119,1.221-0.535,1.656
				c-1.628,1.699-3.256,3.404-4.979,5.004c-1.047,0.973-2.314,0.787-3.298-0.119c-1.106-1.018-1.17-2.324-0.148-3.439
				c1.538-1.678,3.167-3.277,4.815-4.85c0.77-0.734,1.821-0.922,2.749-0.434C49.453,92.111,50.183,92.764,50.064,93.881z"/>
			<path fill-rule="evenodd" clip-rule="evenodd" fill="#020202" d="M122.553,56.779c-2.322-13.395-16.442-22.348-29.474-18.477
				c-1.377,0.408-1.786,0.182-2.299-1.23c-5.215-14.369-22.696-20.537-35.756-12.635c-7.553,4.568-11.668,11.314-12.141,20.156
				c-0.097,1.813-0.625,2.717-2.54,2.434c-0.294-0.043-0.61,0.025-0.911,0.076c-9.491,1.6-16.205,10.598-15.387,20.615
				c0.756,9.252,9.053,16.891,18.393,16.904c9.555,0.016,19.11,0.004,28.666,0.004c9.249,0,18.504-0.201,27.746,0.047
				C113.009,85.055,125.24,72.285,122.553,56.779z M117.308,65.535c-1.827,7.1-6.497,11.699-13.665,13.613
				c-1.852,0.496-3.743,0.553-5.643,0.551c-8.866,0-17.732,0-26.599,0c-9.248,0-18.497,0.029-27.745-0.008
				c-7.699-0.033-12.893-4.359-14.417-11.906c-1.514-7.5,4.902-15.598,12.585-15.824c1.743-0.053,3.493-0.088,5.226,0.375
				c0.885,0.238,1.557,0.178,1.282-1.268c-0.861-4.531-0.842-9.029,1.24-13.326c3.139-6.479,8.177-10.414,15.333-11.475
				c11.201-1.658,20.733,6.428,22.335,16.922c0.408,2.676,0.477,2.705,2.945,1.553c7.664-3.58,14.939-3.254,21.418,2.498
				C117.101,52.123,119.143,58.408,117.308,65.535z"/>
		</g>
		<path fill="#BE2626" d="M73.49,0C32.902,0,0,32.902,0,73.49s32.902,73.49,73.49,73.49s73.491-32.902,73.491-73.49
			S114.078,0,73.49,0z M141.314,73.49c0,17.469-6.608,33.393-17.457,45.416L28.073,23.123C40.097,12.275,56.021,5.666,73.49,5.666
			C110.949,5.666,141.314,36.031,141.314,73.49z M5.666,73.49c0-17.471,6.609-33.394,17.458-45.418l95.785,95.781
			c-12.023,10.852-27.948,17.461-45.419,17.461C36.032,141.314,5.666,110.947,5.666,73.49z"/>
	</g>
</g>
<g id="Layer_2">
</g>
</svg>
