<?xml version="1.0" encoding="utf-8"?>
<!-- Generator: Adobe Illustrator 22.0.1, SVG Export Plug-In . SVG Version: 6.00 Build 0)  -->
<svg version="1.1" xmlns="http://www.w3.org/2000/svg" xmlns:xlink="http://www.w3.org/1999/xlink" x="0px" y="0px"
	 viewBox="0 0 146.982 146.98" enable-background="new 0 0 146.982 146.98" xml:space="preserve">
<g id="Layer_1">
	<g>
		<g>
			<path fill="#010201" d="M93.706,65.355H53.276c-2.148,0-3.888,1.74-3.888,3.887V119c0,2.148,1.74,3.889,3.887,3.889h40.429
				c2.149,0,3.888-1.74,3.889-3.889V69.242C97.593,67.096,95.853,65.355,93.706,65.355z M93.576,114.854
				c0,1.789-1.45,3.24-3.239,3.24H56.646c-1.79,0-3.239-1.451-3.239-3.24l-0.001-41.465c0.001-1.789,1.45-3.24,3.24-3.24h33.691
				c1.789,0,3.239,1.451,3.239,3.24V114.854z"/>
			<path d="M126.327,75.889L75.269,24.83c-0.123-0.123-0.255-0.228-0.395-0.322c-0.418-0.275-0.901-0.414-1.384-0.414
				c-0.644,0-1.287,0.246-1.778,0.736L20.655,75.889c-0.982,0.982-0.981,2.572,0,3.555c0.982,0.982,2.574,0.982,3.557,0
				l49.279-49.277l49.279,49.277c0.981,0.982,2.574,0.982,3.557,0C127.308,78.463,127.308,76.871,126.327,75.889z"/>
		</g>
		<path d="M73.491,0C32.902,0,0,32.902,0,73.49s32.902,73.49,73.491,73.49c40.588,0,73.491-32.902,73.491-73.49S114.079,0,73.491,0z
			 M73.491,142.98C35.111,142.98,4,111.869,4,73.49S35.111,4,73.491,4c38.379,0,69.491,31.111,69.491,69.49
			S111.87,142.98,73.491,142.98z"/>
	</g>
</g>
<g id="Layer_2">
</g>
</svg>
