<?xml version="1.0" encoding="utf-8"?>
<!-- Generator: Adobe Illustrator 22.0.1, SVG Export Plug-In . SVG Version: 6.00 Build 0)  -->
<svg version="1.1" xmlns="http://www.w3.org/2000/svg" xmlns:xlink="http://www.w3.org/1999/xlink" x="0px" y="0px"
	 viewBox="0 0 146.981 146.98" enable-background="new 0 0 146.981 146.98" xml:space="preserve">
<g id="Layer_1">
	<g>
		<path fill-rule="evenodd" clip-rule="evenodd" fill="#020202" d="M119.516,56.398c-1.335-6.537-5.63-10.654-12.192-12.217
			c-1.347-0.322-2.278-0.607-2.438-2.391c-0.189-2.119-1.273-4.063-2.499-5.854c-2.621-3.828-6.426-5.758-10.796-6.801
			c-1.396,0-2.792,0-4.188,0c-0.164,0.111-0.315,0.287-0.494,0.322c-10.914,2.1-16.442,13.059-11.472,22.867
			c0.488,0.965,0.507,1.469-0.285,2.252c-7.572,7.504-15.11,15.043-22.615,22.615c-0.784,0.791-1.288,0.779-2.252,0.287
			c-6.712-3.436-14.231-2.006-19.117,3.5c-2.168,2.441-3.232,5.395-4.071,8.465c0,1.395,0,2.791,0,4.188
			c0.116,0.24,0.293,0.469,0.34,0.723c1.142,6.236,5.869,11.355,12.12,12.527c1.872,0.35,2.243,1.158,2.627,2.686
			c1.594,6.34,5.591,10.57,11.972,11.939c6.279,1.346,11.78-0.629,15.785-5.717c3.982-5.059,4.719-10.727,1.839-16.592
			c-0.67-1.365-0.61-2.078,0.47-3.143c7.306-7.203,14.561-14.457,21.764-21.762c1.059-1.074,1.769-1.156,3.142-0.479
			c5.78,2.855,11.392,2.164,16.433-1.703C118.731,68.17,120.797,62.67,119.516,56.398z M110.84,64.928
			c-3.422,4.178-8.888,4.725-12.953,1.297c-2.425-2.047-3.893-2.008-6.119,0.215c-9.035,9.023-18.063,18.053-27.091,27.084
			c-2.468,2.469-2.541,3.678-0.421,6.465c4.517,5.938,1.368,13.717-6.004,14.836c-5.295,0.803-10.723-4.963-9.522-10.117
			c0.659-2.83-1.349-4.975-4.323-4.359c-5.574,1.152-10.396-4.33-10.222-8.875c0.183-4.793,4.185-8.791,9.407-8.773
			c1.918-0.072,3.851,0.75,5.557,2.191c2.232,1.885,3.946,1.836,5.985-0.201c9.033-9.025,18.06-18.059,27.088-27.088
			c2.536-2.537,2.61-3.732,0.425-6.633c-4.036-5.354-1.728-12.346,4.621-14.377c5.883-1.879,12.286,4.098,11.05,9.736
			c-0.695,3.17,1.418,5.035,4.609,4.303c2.863-0.656,6.763,1.324,8.599,4.367C113.43,58.156,113.157,62.096,110.84,64.928z"/>
		<path fill="#BE2626" d="M73.49,0C32.902,0,0,32.902,0,73.49s32.902,73.49,73.49,73.49s73.491-32.902,73.491-73.49
			S114.078,0,73.49,0z M141.314,73.49c0,17.469-6.608,33.393-17.458,45.416L28.073,23.125C40.097,12.275,56.021,5.666,73.49,5.666
			C110.949,5.666,141.314,36.031,141.314,73.49z M5.666,73.49c0-17.471,6.609-33.394,17.458-45.418l95.785,95.783
			c-12.024,10.85-27.948,17.459-45.419,17.459C36.032,141.314,5.666,110.947,5.666,73.49z"/>
	</g>
</g>
<g id="Layer_2">
</g>
</svg>
