<?xml version="1.0" encoding="utf-8"?>
<!-- Generator: Adobe Illustrator 22.0.1, SVG Export Plug-In . SVG Version: 6.00 Build 0)  -->
<svg version="1.1" xmlns="http://www.w3.org/2000/svg" xmlns:xlink="http://www.w3.org/1999/xlink" x="0px" y="0px"
	 viewBox="0 0 146.983 146.98" enable-background="new 0 0 146.983 146.98" xml:space="preserve">
<g id="Layer_1">
	<g>
		<g>
			<circle fill-rule="evenodd" clip-rule="evenodd" cx="43.743" cy="48.855" r="4.434"/>
			<path fill-rule="evenodd" clip-rule="evenodd" d="M63.152,48.855c0-2.449-1.985-4.434-4.435-4.434
				c-2.447,0-4.432,1.984-4.432,4.434c0,2.447,1.984,4.434,4.432,4.434C61.167,53.289,63.152,51.303,63.152,48.855z"/>
			<path fill-rule="evenodd" clip-rule="evenodd" d="M93.104,48.855c0-2.449-1.985-4.434-4.435-4.434
				c-2.448,0-4.434,1.984-4.434,4.434c0,2.447,1.985,4.434,4.434,4.434C91.119,53.289,93.104,51.303,93.104,48.855z"/>
			<path fill-rule="evenodd" clip-rule="evenodd" d="M108.08,48.855c0-2.449-1.985-4.434-4.435-4.434
				c-2.447,0-4.433,1.984-4.433,4.434c0,2.447,1.985,4.434,4.433,4.434C106.095,53.289,108.08,51.303,108.08,48.855z"/>
			<circle fill-rule="evenodd" clip-rule="evenodd" cx="73.694" cy="48.855" r="4.434"/>
			<circle fill-rule="evenodd" clip-rule="evenodd" cx="52.61" cy="62.398" r="4.434"/>
			<path fill-rule="evenodd" clip-rule="evenodd" d="M99.213,62.398c0-2.449-1.985-4.434-4.434-4.434
				c-2.449,0-4.434,1.984-4.434,4.434c0,2.447,1.984,4.434,4.434,4.434C97.227,66.832,99.213,64.846,99.213,62.398z"/>
			<path fill-rule="evenodd" clip-rule="evenodd" d="M71.079,62.398c0-2.449-1.985-4.434-4.434-4.434
				c-2.449,0-4.435,1.984-4.435,4.434c0,2.447,1.985,4.434,4.435,4.434C69.094,66.832,71.079,64.846,71.079,62.398z"/>
			<path fill-rule="evenodd" clip-rule="evenodd" d="M85.374,62.398c0-2.449-1.985-4.434-4.435-4.434
				c-2.449,0-4.434,1.984-4.434,4.434c0,2.447,1.984,4.434,4.434,4.434C83.389,66.832,85.374,64.846,85.374,62.398z"/>
			<circle fill-rule="evenodd" clip-rule="evenodd" cx="73.694" cy="74.385" r="4.434"/>
			<path fill-rule="evenodd" clip-rule="evenodd" d="M134.02,34.855h-13.374h-2.62H29.164h-0.792h-15.41
				c-1.235,0-2.236,1.004-2.236,2.236c0,1.236,1.001,2.238,2.236,2.238h15.41c0,25.479,20.656,46.137,46.136,46.137
				c25.482,0,46.139-20.658,46.139-46.137h13.374c1.234,0,2.236-1.002,2.236-2.238C136.257,35.859,135.255,34.855,134.02,34.855z
				 M74.508,80.709c-22.852,0-41.377-18.527-41.377-41.379h82.756C115.887,62.182,97.361,80.709,74.508,80.709z"/>
		</g>
		<path d="M73.491,0C32.902,0,0,32.902,0,73.49s32.902,73.49,73.491,73.49c40.588,0,73.492-32.902,73.492-73.49S114.079,0,73.491,0z
			 M73.491,142.98C35.111,142.98,4,111.869,4,73.49S35.111,4,73.491,4c38.379,0,69.492,31.111,69.492,69.49
			S111.87,142.98,73.491,142.98z"/>
		<path fill-rule="evenodd" clip-rule="evenodd" d="M62.211,87.33c0,0-13.096,21,0,21C75.308,108.33,62.211,87.33,62.211,87.33z"/>
		<path fill-rule="evenodd" clip-rule="evenodd" d="M90.346,98.162c0,0-8.731,14.002,0,14.002
			C99.078,112.164,90.346,98.162,90.346,98.162z"/>
		<path fill-rule="evenodd" clip-rule="evenodd" d="M71.079,118.496c0,0-9.561,15.332,0,15.332
			C80.641,133.828,71.079,118.496,71.079,118.496z"/>
	</g>
</g>
<g id="Layer_2">
</g>
</svg>
