<?xml version="1.0" encoding="utf-8"?>
<!-- Generator: Adobe Illustrator 22.0.1, SVG Export Plug-In . SVG Version: 6.00 Build 0)  -->
<svg version="1.1" xmlns="http://www.w3.org/2000/svg" xmlns:xlink="http://www.w3.org/1999/xlink" x="0px" y="0px"
	 viewBox="0 0 300 300" enable-background="new 0 0 300 300" xml:space="preserve">
<g id="Layer_1">
	<g>
		<path fill="#939598" d="M37.4,158.5c0,0,1.4,70,1.8,74c0.4,4,0.4,5.9,3.7,7.2c3.2,1.3,104.7,43.3,106.9,44.1
			c3.5,1.3,5.3,1.1,8.7-0.5c7.9-4.1,93.8-44,97.6-45.9c3.8-1.9,4.5-6.1,4.5-8.6c0-2.5,3.4-174,3.4-174v-3c0,0-113.9-34.2-115-34.7
			c-1.3-0.6-2.9,0-3.9,0.4c-1,0.4-103.2,36.4-109.8,38.7c-6.6,2.3-5.6,7.4-5.6,9.6c0,2.2,4.2,73.8,4.4,81.5c0.1,3.9,1.2,7.7,3,10.9"
			/>
		<path fill="none" stroke="#595A5C" stroke-width="0.6995" stroke-linecap="round" stroke-linejoin="round" d="M139.1,201
			c7.8,0.8,10.3-4,10.3-8.2c0-4.2-4.4-83.1-4.4-88.7c0-5.6,1.7-7.3,6.6-9.3c4.9-2,112.2-43.1,112.2-43.1v2.2
			c0,0-106,40.8-111.1,43.1c-5.1,2.3-5,5.2-5,7.4c0,2.3,3.8,85.5,3.8,88.5c0,4.8-3.9,11.2-9.4,9.2C138.2,201,137.3,200.8,139.1,201z
			"/>
		<path fill="none" stroke="#595A5C" stroke-width="0.6995" stroke-linecap="round" stroke-linejoin="round" d="M151.5,97.7
			c0,0,0.1,179.5,0.1,182.3c0,0,0.5,6.5,6.6,3.5"/>
		<path fill="none" stroke="#414142" stroke-width="2.0984" stroke-linecap="round" stroke-linejoin="round" d="M37.4,158.5
			c0,0,1.4,70,1.8,74c0.4,4,0.4,5.9,3.7,7.2c3.2,1.3,104.7,43.3,106.9,44.1c3.5,1.3,5.3,1.1,8.7-0.5c7.9-4.1,93.8-44,97.6-45.9
			c3.8-1.9,4.5-6.1,4.5-8.6c0-2.5,3.4-174,3.4-174v-3c0,0-113.9-34.2-115-34.7c-1.3-0.6-2.9,0-3.9,0.4c-1,0.4-103.2,36.4-109.8,38.7
			c-6.6,2.3-5.6,7.4-5.6,9.6c0,2.2,4.2,73.8,4.4,81.5c0.1,3.9,1.2,7.7,3,10.9"/>
		<path fill="none" stroke="#595A5C" stroke-width="0.6995" stroke-linecap="round" stroke-linejoin="round" d="M263.7,54.1
			c0,0-108.8,42.1-111.1,43.1c-2.4,1-5.3,2.8-4.9,8.3c0.3,5.5,3.8,86.6,3.7,89.7c-0.1,3.1-4.8,8.6-9.4,7.1
			c-4.5-1.5-91.3-34.9-97.5-37.3c0,0-5.3-2.9-7-6.3"/>
		<path fill="none" stroke="#595A5C" stroke-width="0.6995" stroke-linecap="round" stroke-linejoin="round" d="M151.5,115
			l26.9-10.2c0,0,2.5,1,5.7-0.2c3.2-1.3,55.2-21.8,56.1-22.2c0.9-0.5,0.7-2.2,1.3-2.4c0.6-0.2,22.2-8.9,22.2-8.9v-17L151.6,97.6
			L151.5,115z"/>
		<path fill="none" stroke="#595A5C" stroke-width="0.6995" stroke-linecap="round" stroke-linejoin="round" d="M178.4,104.8
			l0.1-17.5c0,0,3.8,5.9,3.7,11.7c-0.1,5.8-0.1,6.2-0.1,6.2S179.6,105.5,178.4,104.8z"/>
		<path fill="none" stroke="#595A5C" stroke-width="0.6995" stroke-linecap="round" stroke-linejoin="round" d="M240.8,63.2
			c0,0-1.1,7.5-0.7,19.1l0.9-1.9L240.8,63.2z"/>
	</g>
</g>
<g id="Layer_2">
</g>
</svg>
