<?xml version="1.0" encoding="utf-8"?>
<!-- Generator: Adobe Illustrator 22.0.1, SVG Export Plug-In . SVG Version: 6.00 Build 0)  -->
<svg version="1.1" xmlns="http://www.w3.org/2000/svg" xmlns:xlink="http://www.w3.org/1999/xlink" x="0px" y="0px"
	 viewBox="0 0 300 300" enable-background="new 0 0 300 300" xml:space="preserve">
<g id="Layer_1">
	<g>
		<path fill="#FFFFFF" stroke="#414142" stroke-width="2.4661" stroke-linecap="round" stroke-linejoin="round" d="M234,130
			c0,31.1-0.1,62.2-0.1,93.3c0,14.1-11.5,24-22.2,29.8c-22.9,12.5-55.3,14.9-80.2,11.9c-13.1-1.6-27.4-5-39.4-11.1
			c-11.3-5.8-24-16-24-30.8c-0.1-31.1-0.2-62.2-0.3-93.3c-2.4-3.5-4-7.6-4-11.9c0-10.3-0.1-20.5-0.1-30.8c0-9.4,5.1-17.2,11.7-23
			c6.6-5.8,15-10,23.1-13c16.3-6,35.2-8.4,52.4-8.4c17.3,0,36,2.5,52.4,8.5c8.1,3,16.5,7.2,23.1,13c6.6,5.8,11.8,13.6,11.7,23
			c0,10.3,0,20.6,0,30.8C238,122.5,236.4,126.5,234,130z"/>
		<path fill="none" stroke="#595A5C" stroke-width="0.822" stroke-miterlimit="10" d="M238,87.3c-0.1,9.4-5.2,17.2-11.9,22.9
			c-6.7,5.8-15.1,9.9-23.2,12.8c-16.4,5.9-35.2,8.1-52.4,8c-17.3-0.1-36-2.8-52.3-8.9c-8.1-3.1-16.4-7.3-23-13.2
			c-6.6-5.9-11.7-13.7-11.6-23.1"/>
		<path fill="none" stroke="#595A5C" stroke-width="0.822" stroke-miterlimit="10" d="M237.7,83.3c-0.9,9-6.4,16.2-12.9,21.5
			c-6.6,5.4-14.8,9.3-22.7,12c-15.9,5.6-34.1,7.8-50.8,7.8c-16.8,0-34.8-2.4-50.7-8c-14-4.9-33.8-15.1-36.8-32.7"/>
		<path fill="none" stroke="#595A5C" stroke-width="0.822" stroke-miterlimit="10" d="M234,130c-4.1,5.9-10.6,10.5-16.7,13.8
			c-22.2,11.9-53.2,15.1-77.3,13.6c-13.4-0.8-26.2-2.8-39-6.9c-11.1-3.6-25.9-10.1-33.2-20.7"/>
	</g>
</g>
<g id="Layer_2">
</g>
</svg>
