<?xml version="1.0" encoding="utf-8"?>
<!-- Generator: Adobe Illustrator 22.0.1, SVG Export Plug-In . SVG Version: 6.00 Build 0)  -->
<svg version="1.1" xmlns="http://www.w3.org/2000/svg" xmlns:xlink="http://www.w3.org/1999/xlink" x="0px" y="0px"
	 viewBox="0 0 300 300" enable-background="new 0 0 300 300" xml:space="preserve">
<g id="Layer_1">
	<path fill="none" stroke="#58595B" stroke-width="4.7617" stroke-miterlimit="10" d="M65.6,55.2c0,0,1.1,161.3,1.4,168.5
		s4.1,10.1,6.5,11.2c2.4,1,91.1,36.5,98.8,39.7c7.7,3.2,7.4-6.2,7.4-6.2s0.4-163.8,0.5-170.6c0.1-6.8,3.1-9.6,6.7-11.1
		c3.5-1.5,39.6-16.7,43.5-18.1c3.9-1.4,4.2,2.8,4.2,4c0,1.2-1.4,170.4-1.4,170.4s-0.1,6.3-4.8,4.5c-4.7-1.9-94.3-37-98.3-38.6
		c-4-1.5-5.5-5.9-5.5-8.6c0-2.7-0.6-165.8-0.6-169.5c0-3.7-2.9-6.8-5.7-5.8c-2.8,1-42,17.4-46.4,19.3C67.4,46.1,65.6,51.2,65.6,55.2
		z"/>
</g>
<g id="Layer_2">
</g>
</svg>
